<svg enable-background="new 0 0 683.4 191.6" viewBox="0 0 683.4 191.6" xmlns="http://www.w3.org/2000/svg"><g fill="#afafaf"><path d="m268.2 0c0 13.7-.1 27.3-.1 41 0 2.8-.1 5.7 0 8.5 0 1.4-.5 1.9-1.9 1.9-15.7 0-31.4 0-47.1 0-1.6 0-1.9-.7-1.9-2.1 0-15.6 0-31.2 0-46.8 0-.8-.1-1.7-.2-2.5zm-11.1 9.6c-2.6 0-4.8.1-6.8 0-1.9-.2-3.1.6-4.1 2.2-1.9 3.1-4 6.1-5.9 9.1-.8 1.2-2 1.3-3 .9-.5-.2-.8-1.3-.8-2-.1-2.7-.1-5.4 0-8.1.1-1.6-.6-2.2-2.1-2.1-1.6.1-3.3.1-4.9 0-1.2 0-1.6.5-1.6 1.6v5.4 23.2c0 1.4.4 2.1 2 2s3.1-.1 4.7 0c1.5.1 2-.5 2-2-.1-3.1.1-6.2-.1-9.2-.1-1.8.8-2.1 2.2-1.8.6.1 1.2.7 1.6 1.2 2.2 3.4 4.4 6.9 6.6 10.4.3.5.9 1.3 1.4 1.3 3 .1 6 .1 9.3.1-.6-1-.9-1.7-1.3-2.4-2.8-4.4-5.6-8.7-8.5-13.1-.7-1-.7-1.7 0-2.8 2.7-3.9 5.4-7.9 8-11.8.4-.4.6-1 1.3-2.1z"/><path d="m213.5 0c-.1.8-.2 1.7-.2 2.5v46.6c0 1.7-.5 2.3-2.2 2.3-15.6-.1-31.2-.1-46.8 0-1.8 0-2.2-.5-2.2-2.3.1-15.6 0-31.2 0-46.8 0-.8-.1-1.6-.2-2.3 17.3 0 34.4 0 51.6 0zm-16.7 25c1.1-1.4 2.4-2.6 3-4.1 2-5.2-1.5-10.4-7.5-10.8-5.6-.4-11.2-.3-16.8-.4-1.3 0-1.6.7-1.6 1.8v28.4c0 1.5.6 2 2.1 2 4.6-.1 9.3.1 13.9-.1 2.1-.1 4.2-.5 6.2-1.2 2.7-.9 4.5-2.9 5.2-5.8 1-4.6-.1-7.1-4.5-9.8z"/><path d="m323.7 0c0 16-.1 32-.1 48 0 3.7.3 3.3-3.3 3.3-15.1 0-30.2 0-45.3 0-1.8 0-2.2-.5-2.2-2.2.1-15.6 0-31.2 0-46.8 0-.8-.1-1.6-.2-2.3 17 0 34.1 0 51.1 0zm-14.3 23.7v16.4c0 1.3.4 1.9 1.8 1.8 1.6-.1 3.3-.1 4.9 0 1.2 0 1.6-.5 1.6-1.6 0-9.7 0-19.3 0-29 0-1.3-.6-1.7-1.8-1.6-2.1 0-4.2.1-6.3 0-1.1 0-1.8.4-2.2 1.4-1.2 2.7-2.4 5.4-3.7 8.1-1.7 3.8-3.5 7.5-5.3 11.6-.5-1-.9-1.7-1.2-2.4-2.6-5.7-5.2-11.3-7.7-17-.5-1.2-1.2-1.8-2.6-1.7-1.9.1-3.9.1-5.8 0-1.6-.1-2.1.6-2 2.1.1 6.4 0 12.8 0 19.2v9.2c0 1.3.5 1.8 1.7 1.7h.9c5.3 0 5.3 0 5.3-5.3 0-4.2 0-8.4 0-12.9 2.3 5.1 4.7 9.7 6.5 14.6 1.2 3 2.8 4 5.9 3.7 1.3-.2 2-.6 2.5-1.8 2.4-5.4 4.9-10.8 7.5-16.5z"/><path d="m387.3 98c-.3 11.4-2.1 22.4-7.4 32.6-6.3 12.2-16 20.3-29.6 23.1-7.2 1.5-14.4 1.3-21.4-1.1-2-.7-2-.7-2.4 1.4-1.9 12-3.9 24-5.8 36-.2 1.1-.7 1.5-1.8 1.5-8.3 0-16.7 0-25 0-1.4 0-1.6-.6-1.4-1.8 3.7-21.4 7.4-42.8 11.1-64.3 3.2-18.5 6.3-37 9.5-55.6.2-1.2.7-1.8 1.9-2.1 7.9-2.4 16-4.2 24.2-5 4.8-.5 9.6-1 14.4-1 6.4 0 12.6 1 18.4 4.1 8.6 4.6 12.8 12.2 14.4 21.5.4 3.6.5 7.2.9 10.7zm-49 37c5.4-.3 9.6-2.3 12.6-6.6 1.7-2.5 3.3-5.2 4.4-8.1 2.8-7.2 3.6-14.9 3.6-22.5 0-3-.6-6.1-1.4-9.1-.9-3.3-3.3-5.4-6.8-6-3.7-.6-7.4-.2-10.9.9-.6.2-1.2 1.3-1.3 2.1-.8 3.8-1.4 7.7-2.1 11.6-2 11.4-4 22.9-6.1 34.3-.2 1.3.2 1.8 1.3 2 2.3.5 4.5.9 6.7 1.4z"/><path d="m199.3 126.7c1.1 3.4 2.2 6.7 3.2 9.9.7 2.2 1.4 4.4 2.2 6.5.5 1.2.2 1.8-.9 2.5-5.5 3.3-11.5 5.6-17.7 7.1-9.1 2.2-18.3 2.9-27.6 1-13.4-2.8-21.6-11.3-23.7-24.6-3.2-19.8 1.8-37.5 15.6-52.3 8.5-9 19.2-13.8 31.5-14.8 6.1-.5 12.1-.2 17.8 1.9 8.7 3.1 13.5 10 13.7 19.3.3 13-5.8 22.1-17 28-7.2 3.8-15.1 5.7-23.1 6.9-3.2.5-6.5.8-9.7 1.1-1 .1-1.4.6-1.3 1.5.5 6.7 4 11.9 11.6 12.9 7 .9 13.4-1.1 19.6-3.9 1.9-1 3.7-1.9 5.8-3zm-35.2-24.5c7.9-.8 15.1-2.3 21-7.5 1.8-1.6 2.9-3.7 3.4-6.1.7-3.6-1.7-6.6-5.4-6.8-4.2-.2-7.7 1.3-10.6 4.1-4.6 4.4-6.8 9.9-8.4 16.3z"/><path d="m515.4 126.9c1.9 5.8 3.7 11.3 5.4 16.8.1.5-.6 1.5-1.1 1.8-6.2 3.8-13 6.1-20 7.6-5.8 1.2-11.6 1.8-17.4 1.4-8.8-.5-16.9-2.7-23.3-9.3-4.7-4.9-7.3-10.8-8.1-17.4-2.4-18 1.9-34.3 13.5-48.4 7.9-9.6 18.2-15.2 30.6-17 6.7-1 13.3-.8 19.9 1.1 9.3 2.8 14.6 10.1 14.8 19.8.3 15.1-8.4 24.2-20 29.2-7.5 3.3-15.5 4.9-23.6 5.8-2 .2-3.9.6-5.9.7-1.4.1-1.7.7-1.6 2 .8 8 5.9 12.8 14 12.9 7.4.1 14.1-2.4 20.5-5.8.6-.3 1.3-.7 2.3-1.2zm-35.2-25c.4.2.6.3.8.3 6.5-.5 12.7-2 18.2-5.7 2.6-1.8 4.6-4 5.4-7.2 1-4.3-1.5-7.4-5.8-7.5-4.8-.2-8.5 1.9-11.5 5.4-3.8 4.2-5.8 9.2-7.1 14.7z"/><path d="m307.9 64.7c-2.9 3.6-5.6 6.8-8.3 10.1-8.4 10.1-16.8 20.3-25.2 30.4-1.2 1.5-1.4 2.6-.5 4.3 6.4 13.3 12.7 26.7 19.1 40.1.3.6.5 1.2.9 2.1-.8.1-1.3.2-1.9.2-8.6 0-17.2 0-25.7 0-1.4 0-2.2-.5-2.7-1.8-2.7-6.4-5.6-12.7-8.4-19.1-.3-.7-.7-1.4-1.2-2.4-.9 1-1.6 1.8-2.3 2.6-4.9 6.2-9.9 12.4-14.7 18.6-1.1 1.4-2.3 2-4.1 2-8.6-.1-17.3 0-25.9 0-.6 0-1.2 0-2.2 0 1.7-2.1 3.1-3.8 4.5-5.5 10.6-12.7 21.2-25.4 31.9-38 1-1.2 1.1-2 .4-3.4-6-12.8-12-25.6-18-38.4-.2-.5-.4-1-.7-1.7.8 0 1.3-.1 1.9-.1h24.3c1.4 0 2.2.4 2.7 1.8 2.5 6.3 5.1 12.5 7.7 18.7.3.7.6 1.3 1 2.2.6-.6 1-1 1.4-1.4 5-6.4 10-12.8 15-19.3 1-1.4 2.1-2 3.9-2 8.3.1 16.7 0 25 .1.5-.1 1.1-.1 2.1-.1z"/><path d="m669.2 89.8c-3.4-2-6.9-4.3-10.7-6.1-3.4-1.7-7.1-2.4-10.9-1.5-3 .7-5.4 2.1-6 5.3-.6 3.1.6 5.7 3.2 7.3 2.5 1.6 5.2 2.7 7.9 4 4.8 2.3 10 4.1 14.4 7 7.7 5 10.2 12.7 9.3 21.6-1.4 13.8-9.8 21.7-22.5 25.2-16.9 4.5-33.1 2.4-48.3-6.5-2.1-1.2-2.1-1.3-.9-3.5 3.1-5.5 6.1-11.1 9.2-16.8.6.3 1 .5 1.5.8 6.7 3.9 13.7 7 21.5 7.7 2.2.2 4.5-.2 6.6-.7 2.5-.7 4.1-2.5 4.5-5.2s-.8-4.7-3-5.9c-3.1-1.6-6.4-2.9-9.5-4.4-4.2-1.9-8.5-3.5-12.4-5.9-6.7-4.1-9.6-10.6-9.9-18.3-.3-9.1 2.4-16.9 9.3-23 5.3-4.6 11.7-7 18.5-8.1 13.5-2.2 25.9.4 37.1 8.3 1.7 1.2 3.1 2.7 4.7 4 .6.6.9 1.1.1 1.8-4.6 4.2-9.1 8.6-13.7 12.9z"/><path d="m592.8 90.2c-2.4-1.7-4.7-3.4-7.2-4.9-3.7-2.2-7.6-3.7-12-3.5-1.5 0-3 .3-4.4.9-5.1 2.1-6.1 8.1-1.7 11.5 2.3 1.7 5 2.9 7.6 4.1 4.2 2 8.6 3.5 12.7 5.7 6.1 3.2 10.4 8.1 11.6 15.1 2.4 14.2-3.8 26.3-17.8 31.9-8.5 3.4-17.3 4.1-26.3 3.3-8.8-.8-17.2-3-24.9-7.5-4.5-2.6-3.7-1.7-1.6-5.7 2.4-4.5 4.9-8.9 7.3-13.4.4-.7.8-1.3 1.2-2.1.9.5 1.7.9 2.5 1.4 6.3 3.6 12.9 6.4 20.2 7 2.5.2 5.4-.2 7.7-1.1 4.6-1.9 5-7.6 1-10.3-2.4-1.6-5.1-2.7-7.7-3.8-3.6-1.6-7.3-2.8-10.9-4.5-8-3.9-12.8-10.1-13.4-19.3-.7-10.1 2.3-18.6 10.3-25 5.2-4.2 11.3-6.3 17.7-7.3 10.3-1.8 20.2-.4 29.6 4 4.4 2 8.3 4.7 11.7 8.1.8.8 1 1.4.1 2.3-4.3 4.3-8.5 8.7-12.8 13.1-.2-.1-.4 0-.5 0z"/><path d="m423.4 76.3c5.2-8.1 11.9-14 21.9-14.4 4.7-.2 9.5.6 13.8 3.4-1.5 4.4-3 8.7-4.5 13.1-.9 2.7-1.9 5.5-2.8 8.2-.4 1.5-1 1.9-2.5 1.2-3.5-1.5-7.2-2.3-11.1-2.1-7.4.5-12.6 5.8-13.9 13.2-3 17-6.1 34-9.1 51.1-.2 1.2-.7 1.9-2.1 1.8-8.2-.1-16.3-.1-24.5 0-1.5 0-1.9-.6-1.6-2 3.5-19.6 6.8-39.2 10.4-58.7 1.4-7.9 2.3-15.7 2.2-23.7 0-2.6.2-2.8 2.8-2.8 6 0 12 .1 17.9 0 1.6 0 2.2.4 2.2 2.1 0 3.1.2 6.2.4 9.4.2.1.4.2.5.2z"/><path d="m0 151.8c4.7-3.4 9-6.5 13.4-9.7 5.5-4 10.9-7.9 16.5-11.8.9-.6 2.1-1.1 3.1-1.1 29.8-.1 59.6 0 89.3-.1 1.1 0 1.9.1 2.1 1.5 1.3 8 4.5 15.1 10.6 21.2-45 0-89.7 0-135 0z"/><path d="m21.2 118.6c.8-.7 1.2-1 1.6-1.3 9.5-6.8 18.9-13.6 28.4-20.4.8-.6 2-1 3-1 23.9-.1 47.7 0 71.6 0 .5 0 .9.1 1.5.1-.8 3.4-1.7 6.7-2.3 10.1-.6 3.6-1 7.2-1.3 10.8-.1 1.5-.7 1.9-2.1 1.8-16.8 0-33.6 0-50.4 0-15.7 0-31.4 0-47.1 0-.8-.1-1.5-.1-2.9-.1z"/><path d="m150.7 63.3c-6.6 4.8-11.7 10.5-15.9 17-.5.8-1.2 1.6-1.5 2.5-.9 2.6-2.6 3.2-5.4 3.2-28.6-.1-57.3-.1-85.9-.1-.7 0-1.3 0-2.3 0 .7-.6 1-.9 1.4-1.2 9.5-6.9 19.1-13.8 28.7-20.7.6-.5 1.5-.8 2.3-.8h77.4c.2 0 .4 0 1.2.1z"/><path d="m186.9 35.4c-4.8 0-4.7 0-4.8-4.7 0-1.8.5-2.4 2.3-2.2 1.9.1 3.7 0 5.6.1 2.2.1 3.1 1.2 3.1 3.6 0 2.3-.9 3.2-3.1 3.3-1.1-.1-2.1-.1-3.1-.1z"/><path d="m186 22.8c-4.5-.2-3.8.4-3.9-4 0-2.7 0-2.8 2.8-2.7 1.7 0 3.5.1 5.2.3 1.4.2 2 1.2 2.1 2.5.1 1.4-.3 2.8-1.8 3.2-1.4.5-2.9.5-4.4.7z"/></g></svg>