<?xml version="1.0" standalone="no"?>
<!DOCTYPE svg PUBLIC "-//W3C//DTD SVG 1.1//EN" "http://www.w3.org/Graphics/SVG/1.1/DTD/svg11.dtd" >
<svg xmlns="http://www.w3.org/2000/svg">
<metadata>Generated by IcoMoon</metadata>
<defs>
<font id="icomoon" horiz-adv-x="1024">
<font-face units-per-em="1024" ascent="896" descent="-128" />
<missing-glyph horiz-adv-x="1024" />
<glyph unicode="&#x20;" horiz-adv-x="400" d="" />
<glyph unicode="&#xe900;" glyph-name="contact_online" d="M385.707 397.653c10.24-10.24 20.48-13.653 34.133-13.653s23.893 3.413 34.133 13.653c10.24 10.24 13.653 20.48 13.653 34.133s-3.413 23.893-13.653 34.133c-10.24 10.24-20.48 13.653-34.133 13.653s-23.893-3.413-34.133-13.653c-10.24-10.24-13.653-20.48-13.653-34.133s6.827-23.893 13.653-34.133zM419.84 336.213c-23.893 0-47.787 10.24-68.267 27.307-37.547 37.547-37.547 95.573 0 133.12 17.067 17.067 40.96 27.307 68.267 27.307 23.893 0 47.787-10.24 68.267-27.307 17.067-17.067 27.307-40.96 27.307-68.267 0-23.893-10.24-47.787-27.307-68.267-20.48-13.653-44.373-23.893-68.267-23.893zM430.080 199.68c-13.653 0-23.893-3.413-34.133-13.653-17.067-17.067-17.067-47.787 0-64.853 10.24-10.24 20.48-13.653 34.133-13.653s23.893 3.413 34.133 13.653c17.067 17.067 17.067 47.787 0 64.853-10.24 10.24-23.893 13.653-34.133 13.653zM430.080 59.733c-23.893 0-47.787 10.24-68.267 27.307-37.547 37.547-37.547 95.573 0 133.12 17.067 17.067 40.96 27.307 68.267 27.307 23.893 0 47.787-10.24 68.267-27.307 37.547-37.547 37.547-95.573 0-133.12-20.48-17.067-44.373-27.307-68.267-27.307zM273.067 189.44c-10.24 0-17.067 3.413-20.48 13.653-6.827 10.24 0 27.307 10.24 30.72l300.373 153.6c3.413 3.413 6.827 3.413 10.24 3.413 10.24 0 17.067-3.413 20.48-13.653 3.413-6.827 3.413-13.653 0-17.067-3.413-6.827-6.827-10.24-10.24-13.653l-300.373-153.6c0 0-6.827-3.413-10.24-3.413zM764.587 694.545c34.133-3.413 64.853-30.72 68.267-68.267v-6.827l105.813 105.813c13.653 13.653 20.48 30.72 20.48 47.787 0 37.547-30.72 68.267-68.267 68.267h-119.467c-37.547 0-68.267-30.72-68.267-68.267v-75.093l61.44-3.413zM658.773 568.251c-3.413 0-3.413-3.413-6.827-3.413-6.827-6.827-10.24-13.653-10.24-23.893s3.413-17.067 10.24-23.893c6.827-6.827 13.653-10.24 23.893-10.24s17.067 3.413 23.893 10.24c0 0 3.413 3.413 3.413 6.827-20.48 3.413-37.547 20.48-44.373 44.373zM491.52 674.065c-6.827 0-13.653-3.413-20.48-6.827l-402.773-409.6c0 0-3.413-3.413-3.413-6.827s0-3.413 3.413-3.413l317.44-317.44c0 0 3.413-3.413 6.827-3.413s3.413 0 6.827 3.413l406.187 406.187c6.827 6.827 10.24 13.653 6.827 23.893l-27.307 262.827c0 13.653-10.24 23.893-23.893 23.893l-58.027 6.827v-34.133c13.653-3.413 23.893-10.24 34.133-20.48 17.067-17.067 23.893-37.547 23.893-58.027s-6.827-40.96-23.893-58.027c-17.067-17.067-37.547-23.893-58.027-23.893s-40.96 6.827-58.027 23.893c-17.067 17.067-23.893 37.547-23.893 58.027s6.827 40.96 23.893 58.027c10.24 10.24 20.48 17.067 34.133 20.48v37.547l-163.84 17.067c3.413 0 0 0 0 0zM392.533-124.655c-13.653 0-30.72 6.827-40.96 17.067l-317.44 320.853c-20.48 20.48-20.48 58.027 0 78.507l402.773 406.187c13.653 13.653 34.133 23.893 54.613 23.893 3.413 0 3.413 0 6.827 0l153.6-13.653v68.267c0 64.853 51.2 116.053 116.053 116.053h119.467c64.853 0 116.053-51.2 116.053-116.053 0-30.72-13.653-61.44-34.133-81.92l-133.12-133.12 20.48-197.973c3.413-23.893-6.827-44.373-20.48-61.44l-406.187-409.6c-10.24-10.24-23.893-17.067-37.547-17.067z" />
<glyph unicode="&#xe901;" glyph-name="contact_rental" d="M457.395 843.639c-9.546 0-17.308-7.674-17.308-17.111 0-9.431 7.762-17.111 17.308-17.111 4.608 0 8.951 1.78 12.235 5.015 0.094 0.111 0.23 0.244 0.383 0.396 3.031 3.194 4.696 7.343 4.696 11.7-0.006 9.431-7.768 17.111-17.314 17.111zM171.482 416.986l610.963 140.358-207.325 159.459c-4.92-4.771-11.588-7.471-18.526-7.471-6.568 0-12.877 2.397-17.755 6.755l-3.007 2.688-364.35-301.789zM153.32-67.133l807.742 185.571-95.044 404.346c0 0-790.858-181.69-791.387-181.795l-16.349-3.759 95.038-404.364zM133.517-124.733c-4.949 0-9.793 1.367-14.001 3.962-6.009 3.7-10.199 9.489-11.794 16.308l-107.026 455.337c-1.601 6.813-0.424 13.83 3.313 19.764 3.743 5.94 9.593 10.083 16.484 11.665l36.864 8.465 438.819 363.473-9.969 8.913c-9.016-4.015-18.826-6.109-28.813-6.109-38.747 0-70.273 31.168-70.273 69.475 0 38.313 31.526 69.481 70.273 69.481s70.268-31.162 70.268-69.475c0-8.733-1.671-17.391-4.89-25.46l14.436-12.905c4.526 3.293 10.040 5.091 15.69 5.091 5.856 0 11.629-1.955 16.255-5.51l279.717-215.133 30.961 7.11c1.983 0.448 3.99 0.675 5.991 0.675 12.376 0 22.987-8.326 25.8-20.247l107.026-455.354c1.607-6.807 0.424-13.83-3.313-19.77-3.737-5.935-9.593-10.071-16.478-11.665l-859.342-197.417c-1.989-0.448-3.996-0.675-5.997-0.675z" />
<glyph unicode="&#xe902;" glyph-name="contact_phone" d="M512 831.147c245.76 0 447.147-201.387 447.147-447.147s-201.387-447.147-447.147-447.147-447.147 201.387-447.147 447.147 201.387 447.147 447.147 447.147zM512 896c-283.307 0-512-228.693-512-512s228.693-512 512-512 512 228.693 512 512-228.693 512-512 512zM798.72 213.333l-3.413 10.24c-6.827 20.48-27.307 40.96-51.2 47.787l-75.093 20.48c-20.48 6.827-51.2-3.413-64.853-17.067l-27.307-27.307c-98.987 27.307-177.493 105.813-204.8 204.8l27.307 27.307c13.653 13.653 23.893 44.373 17.067 64.853l-20.48 75.093c-6.827 20.48-27.307 44.373-47.787 51.2l-10.24 3.413c-20.48 6.827-47.787 0-64.853-13.653l-40.96-40.96c-6.827-6.827-13.653-27.307-13.653-27.307 0-129.707 51.2-256 139.947-348.16 92.16-92.16 215.040-143.36 344.747-139.947 0 0 20.48 3.413 30.72 10.24l40.96 40.96c23.893 10.24 30.72 37.547 23.893 58.027z" />
<glyph unicode="&#xe903;" glyph-name="contact_shop" horiz-adv-x="1161" d="M823.505 339.14h-157.501c-43.106 0-78.158-35.409-78.158-78.953v-122.019c0-43.544 35.053-78.953 78.158-78.953h157.501c43.106 0 78.158 35.409 78.158 78.953v122.019c0 43.544-35.053 78.953-78.158 78.953zM844.821 138.168c0-11.963-9.711-21.533-21.316-21.533h-157.501c-11.842 0-21.316 9.809-21.316 21.533v122.019c0 11.963 9.711 21.533 21.316 21.533h157.501c11.842 0 21.316-9.809 21.316-21.533v-122.019zM1159.112 560.927c0 5.024-1.184 9.809-3.789 14.116l-172.422 306.243c-4.974 8.852-14.447 14.594-24.632 14.594h-757.662c-10.184 0-19.658-5.503-24.632-14.594l-172.185-306.243c-2.368-4.307-3.789-9.092-3.789-14.116 0-68.665 40.974-127.521 99.474-153.6v-505.062c0-15.791 12.79-28.71 28.421-28.71h157.027c0.237 0 0.474 0 0.711 0h220.264c0.237 0 0.474 0 0.711 0h524.372c15.632 0 28.421 12.92 28.421 28.71v501.473c0 1.196 0 2.153-0.237 3.11 58.737 26.079 99.948 85.174 99.948 154.079zM217.186 838.221h724.504l134.764-239.492h-993.795l134.527 239.492zM824.926 541.548c-9-51.679-53.763-90.916-107.527-90.916s-98.527 39.237-107.527 90.916h215.054zM549.477 541.548c-9-51.679-53.763-90.916-107.527-90.916s-98.527 39.237-107.764 90.916h215.291zM58.737 541.548h215.291c-9-51.679-54-90.916-107.764-90.916-53.763-0.239-98.527 39.237-107.527 90.916zM477.477-69.024h-163.422v309.832c0 22.49 18 40.912 40.5 40.912h82.658c22.263 0 40.5-18.183 40.5-40.912v-309.832h-0.237zM1002.559-69.024h-468.24v309.832c0 54.071-43.579 98.333-97.343 98.333h-82.658c-53.527 0-97.343-44.022-97.343-98.333v-310.071h-100.659v462.475c3.316-0.239 6.632-0.239 9.947-0.239 57.316 0 108.001 29.428 137.843 74.168 29.842-44.74 80.527-74.168 137.843-74.168s107.764 29.428 137.843 74.168c29.842-44.74 80.527-74.168 137.606-74.168 57.316 0 107.764 29.428 137.606 74.168 29.842-44.74 80.527-74.168 137.843-74.168 3.316 0 6.395 0.239 9.711 0.239v-462.236zM992.848 450.393c-53.763 0-98.527 39.237-107.527 90.916h215.291c-9.237-51.439-54-90.916-107.764-90.916z" />
<glyph unicode="&#xe904;" glyph-name="contact_base" d="M512 896c-225.28 0-409.6-184.32-409.6-409.6 0-27.307 3.413-51.2 6.827-78.507 0 0 0-6.827 3.413-13.653 6.827-27.307 17.067-54.613 27.307-81.92 44.373-105.813 139.947-262.827 354.987-436.907 6.827-3.413 10.24-6.827 17.067-6.827s13.653 3.413 17.067 6.827c211.627 170.667 310.613 331.093 354.987 436.907 13.653 27.307 20.48 54.613 27.307 81.92 3.413 6.827 3.413 13.653 3.413 13.653 6.827 27.307 6.827 51.2 6.827 78.507 0 225.28-184.32 409.6-409.6 409.6zM856.747 418.133c0 0 0 0 0 0 0-3.413 0-6.827-3.413-10.24 0 0 0 0 0 0-6.827-23.893-13.653-47.787-23.893-71.68 0 0 0 0 0 0-40.96-95.573-129.707-238.933-320.853-399.36-191.147 157.013-279.893 303.787-320.853 399.36 0 0 0 0 0 0-10.24 23.893-17.067 44.373-23.893 71.68 0 0 0 0 0 0 0 3.413-3.413 6.827-3.413 10.24 0 0 0 0 0 0-3.413 20.48-6.827 44.373-6.827 68.267 6.827 194.56 163.84 351.573 358.4 351.573s351.573-157.013 351.573-351.573c0-23.893 0-44.373-6.827-68.267zM512 742.4c-143.36 0-259.413-116.053-259.413-259.413s116.053-259.413 259.413-259.413 259.413 116.053 259.413 259.413-116.053 259.413-259.413 259.413zM512 278.187c-112.64 0-201.387 92.16-201.387 201.387s92.16 201.387 201.387 201.387 201.387-92.16 201.387-201.387-88.747-201.387-201.387-201.387z" />
<glyph unicode="&#xe905;" glyph-name="refresh" d="M866.987 896c-20.48 0-34.133-17.067-34.133-37.547v-133.12c-180.907 184.32-467.627 177.493-645.12-6.827-81.92-88.747-129.707-204.8-129.707-327.68 0-20.48 17.067-37.547 34.133-37.547s34.133 17.067 34.133 37.547c0 218.453 174.080 395.947 385.707 395.947 109.227 0 211.627-47.787 286.72-129.707l-157.013-54.613c-17.067-6.827-27.307-27.307-23.893-44.373 6.827-20.48 27.307-30.72 44.373-23.893l211.627 71.68c13.653 3.413 23.893 20.48 23.893 34.133v218.453c6.827 20.48-10.24 37.547-30.72 37.547zM928.427 414.72c-20.48 0-34.133-17.067-34.133-37.547 0-218.453-174.080-395.947-385.707-395.947-109.227 0-211.627 47.787-286.72 129.707l157.013 54.613c17.067 6.827 27.307 27.307 23.893 44.373-6.827 20.48-27.307 30.72-44.373 23.893l-211.627-71.68c-13.653-3.413-23.893-20.48-23.893-34.133v-218.453c0-20.48 17.067-37.547 34.133-37.547s34.133 17.067 34.133 37.547v133.12c180.907-180.907 471.040-174.080 645.12 10.24 81.92 88.747 129.707 204.8 129.707 327.68-3.413 17.067-17.067 34.133-37.547 34.133z" />
<glyph unicode="&#xe906;" glyph-name="hamburger" d="M512 707.2c-179.2 0-323.2-144-323.2-323.2s144-323.2 323.2-323.2 323.2 144 323.2 323.2-144 323.2-323.2 323.2zM512 112c-150.4 0-272 121.6-272 272s118.4 272 272 272 272-118.4 272-272c0-150.4-121.6-272-272-272zM371.2 480h259.2c12.8 0 25.6 9.6 25.6 22.4 3.2 3.2 3.2 9.6 0 16-3.2 9.6-16 16-25.6 16h-259.2c-16 0-25.6-9.6-25.6-25.6 0-12.8 9.6-28.8 25.6-28.8zM371.2 358.4h259.2c16 0 25.6 9.6 25.6 25.6s-9.6 25.6-25.6 25.6h-259.2c-16 0-25.6-9.6-25.6-25.6s9.6-25.6 25.6-25.6zM630.4 288h-259.2c-16 0-25.6-9.6-25.6-25.6 0-12.8 9.6-25.6 25.6-25.6h259.2c12.8 0 25.6 9.6 25.6 22.4 3.2 3.2 3.2 9.6 0 16s-12.8 12.8-25.6 12.8z" />
<glyph unicode="&#xe907;" glyph-name="youtube" d="M920.579 366.863c-4.946 22.482-15.91 41.336-32.856 56.569-16.96 15.233-36.481 24.188-58.583 26.856-70.091 7.618-175.802 11.424-317.145 11.424-141.339 0-246.862-3.809-316.579-11.424-22.47-2.668-42.089-11.622-58.857-26.856-16.764-15.239-27.812-34.095-33.148-56.569-9.903-44.198-14.857-110.863-14.857-200.008 0-90.664 4.954-157.335 14.857-200.006 4.96-22.466 15.914-41.336 32.866-56.563 16.952-15.239 36.477-23.999 58.569-26.287 70.103-8 175.822-12.001 317.153-12.001 141.321 0 247.060 4.001 317.137 12.001 22.102 2.288 41.526 11.048 58.294 26.287 16.766 15.225 27.814 34.097 33.144 56.563 9.903 44.198 14.863 110.863 14.863 200.006-0.002 90.666-4.962 157.339-14.859 200.008zM330.291 309.136h-61.143v-325.137h-57.14v325.137h-60.004v53.713h178.288v-53.713zM484.573-16h-50.857v30.864c-20.571-23.247-40.007-34.863-58.292-34.863-17.521 0-28.571 7.053-33.136 21.143-3.044 9.143-4.575 23.055-4.575 41.718v223.425h50.857v-208c0-12.185 0.192-18.856 0.576-20.001 1.143-8 5.14-11.999 12.001-11.999 10.283 0 21.147 8 32.572 23.999v215.999h50.857v-282.288zM678.861 68.575c0-27.808-1.711-46.868-5.124-57.158-6.493-20.939-20.007-31.417-40.576-31.417-18.287 0-35.998 10.478-53.151 31.417v-27.424h-50.849v378.856h50.849v-124c16.39 20.561 34.097 30.848 53.151 30.848 20.569 0 34.083-10.67 40.576-31.999 3.41-9.903 5.124-28.759 5.124-56.569v-112.554zM872.005 115.425h-102.283v-49.714c0-26.287 8.754-39.423 26.281-39.423 12.567 0 20.193 6.849 22.857 20.575 0.753 3.807 1.143 15.423 1.143 34.849h52v-7.425c0-18.672-0.39-29.714-1.145-33.15-1.135-10.273-5.124-20.561-11.999-30.848-13.714-20.193-34.303-30.288-61.727-30.288-26.273 0-46.848 9.717-61.711 29.137-11.042 14.096-16.562 36.192-16.562 66.288v98.864c0 30.094 5.328 52.19 15.986 66.286 14.865 19.424 35.246 29.137 61.159 29.137 25.529 0 45.733-9.713 60.57-29.137 10.3-14.096 15.431-36.192 15.431-66.286v-58.865zM605.709 223.424c-8.766 0-17.329-4.205-25.713-12.575v-171.993c8.382-8.378 16.946-12.567 25.713-12.567 14.849 0 22.296 12.753 22.296 38.288v120.56c-0.002 25.529-7.431 38.288-22.296 38.288zM795.435 223.424c-17.142 0-25.713-12.959-25.713-38.848v-26.287h51.423v26.287c0 25.903-8.574 38.848-25.711 38.848zM297.162 668v-154.863h57.14v154.863l69.132 228h-58.284l-38.848-150.287-40.576 150.287h-60.568c10.668-32.003 23.049-67.619 37.145-106.86 17.907-52.568 29.52-92.956 34.859-121.14zM500.004 509.136c26.287 0 46.472 9.715 60.568 29.143 10.672 14.096 16 36.575 16 67.427v100.005c0 30.472-5.342 52.764-16 66.861-14.096 19.428-34.281 29.143-60.568 29.143-25.531 0-45.533-9.715-60.004-29.143-10.662-14.096-15.996-36.389-15.996-66.861v-100.003c0-30.472 5.328-52.953 15.996-67.427 14.477-19.43 34.471-29.145 60.004-29.145zM475.428 715.999c0 26.287 8.192 39.431 24.576 39.431s24.568-13.144 24.568-39.431v-119.997c0-26.675-8.184-39.999-24.568-39.999s-24.576 13.332-24.576 39.999v119.997zM657.135 509.136c19.060 0 38.684 11.811 58.869 35.436v-31.429h52v285.142h-52v-217.713c-11.432-16.384-22.282-24.568-32.582-24.568-6.863 0-10.864 4.189-12.001 12.569-0.382 0.763-0.574 7.435-0.574 20.003v209.709h-52v-225.148c0-19.424 1.535-33.705 4.575-42.853 4.958-14.096 16.192-21.147 33.713-21.147z" />
<glyph unicode="&#xe908;" glyph-name="star" horiz-adv-x="1092" d="M1084.57 509.028c-3.567 10.786-12.929 18.49-24.297 20.251l-338.821 47.546-152.469 302.666c-5.127 10.126-15.604 16.509-26.972 16.509s-21.845-6.383-26.972-16.729l-150.463-303.546-338.821-49.747c-11.368-1.761-20.73-9.465-24.297-20.251s-0.446-22.672 7.802-30.377l245.868-235.309-56.842-333.262c-2.006-11.226 2.675-22.452 12.037-29.056 5.127-3.742 11.368-5.723 17.61-5.723 4.904 0 9.585 1.101 14.043 3.522l302.487 158.267 303.379-156.506c4.458-2.201 9.139-3.302 13.82-3.302 16.495 0 30.093 13.427 30.093 29.716 0 2.421-0.223 4.623-0.892 6.824l-58.625 331.281 244.308 236.629c8.693 7.924 11.591 19.811 8.025 30.597zM779.186 273.279c-7.133-6.824-10.254-16.729-8.471-26.414l51.046-289.018-263.478 135.814c-8.693 4.623-19.17 4.402-28.086 0l-262.586-137.355 49.263 289.458c1.56 9.685-1.56 19.371-8.693 26.194l-213.101 204.272 294.016 43.144c9.808 1.541 18.279 7.484 22.514 16.289l130.624 263.484 132.408-262.824c4.458-8.805 12.929-14.748 22.737-16.289l294.239-41.383-212.432-205.372z" />
<glyph unicode="&#xe909;" glyph-name="star_full" horiz-adv-x="1092" d="M1084.57 509.028c-3.567 10.786-12.929 18.49-24.297 20.251l-338.821 47.546-152.469 302.666c-5.127 10.126-15.604 16.509-26.972 16.509s-21.845-6.383-26.972-16.729l-150.463-303.546-338.821-49.747c-11.368-1.761-20.73-9.465-24.297-20.251s-0.446-22.672 7.802-30.377l245.868-235.309-56.842-333.262c-2.006-11.226 2.675-22.452 12.037-29.056 5.127-3.742 11.368-5.723 17.61-5.723 4.904 0 9.585 1.101 14.043 3.522l302.487 158.267 303.379-156.506c4.458-2.201 9.139-3.302 13.82-3.302 16.495 0 30.093 13.427 30.093 29.716 0 2.421-0.223 4.623-0.892 6.824l-58.625 331.281 244.308 236.629c8.693 7.924 11.591 19.811 8.025 30.597z" />
<glyph unicode="&#xe90a;" glyph-name="bizeulasin" d="M952.32 165.547c0-34.133-30.72-61.44-61.44-61.44h-761.173c-34.133 0-61.44 30.72-61.44 61.44v385.707l426.667-235.52c3.413-3.413 10.24-3.413 13.653-3.413v0c3.413 0 10.24 0 13.653 3.413l426.667 235.52v-385.707zM129.707 670.72h764.587c23.893 0 51.2-20.48 61.44-44.373l-443.733-245.76-440.32 245.76c3.413 23.893 27.307 44.373 58.027 44.373zM894.293 735.573h-764.587c-71.68 0-129.707-61.44-129.707-129.707v-447.147c0-71.68 61.44-129.707 129.707-129.707h764.587c71.68 0 129.707 61.44 129.707 129.707v447.147c-3.413 71.68-61.44 129.707-129.707 129.707z" />
<glyph unicode="&#xe90b;" glyph-name="sepetekle" d="M83.2-44.8c0-48 38.4-83.2 83.2-83.2s83.2 38.4 83.2 83.2-38.4 83.2-83.2 83.2-83.2-35.2-83.2-83.2zM467.2-44.8c0-48 38.4-83.2 83.2-83.2 48 0 83.2 38.4 83.2 83.2s-38.4 83.2-83.2 83.2c-48 3.2-83.2-35.2-83.2-83.2zM147.2 569.6c0 9.6-9.6 12.8-16 12.8h-115.2c-6.4 0-16-6.4-16-12.8v-60.8h70.4l70.4-329.6 9.6-35.2v-54.4c0-9.6 9.6-12.8 16-12.8v0h489.6c9.6 0 16 9.6 16 12.8v54.4h-419.2c-41.6 0-41.6 16-9.6 25.6l416 115.2c9.6 3.2 12.8 12.8 12.8 16v204.8h-524.8c0 0 0 64 0 64zM995.2 736c22.4 0 28.8-6.4 28.8-28.8v-35.2c0-22.4-6.4-32-28.8-32h-131.2v-131.2c0-22.4-9.6-28.8-32-28.8h-35.2c-22.4 0-28.8 6.4-28.8 28.8v131.2h-128c-25.6 0-32 9.6-32 28.8v38.4c0 22.4 6.4 28.8 28.8 28.8h128v131.2c3.2 22.4 9.6 28.8 32 28.8h35.2c22.4 0 32-6.4 32-28.8v-131.2h131.2z" />
<glyph unicode="&#xe90c;" glyph-name="traingle" d="M512 281.6l160.427 204.8h-320.853z" />
<glyph unicode="&#xe90d;" glyph-name="locked" d="M727.579 482.807v204.782c0 114.922-100.729 208.411-224.561 208.411s-224.561-93.489-224.561-208.411v-204.782h-161.684v-610.807h790.456v610.807h-179.649zM314.386 687.589c0 95.106 84.615 172.481 188.632 172.481s188.632-77.375 188.632-172.481v-204.782h-377.263v204.782zM871.298-92.070h-718.596v71.86h718.596v-71.86zM152.702 15.719v431.158h718.596v-431.158h-718.596zM512 339.088c-39.631 0-71.86-32.229-71.86-71.86v-107.789c0-39.631 32.229-71.86 71.86-71.86s71.86 32.229 71.86 71.86v107.789c0 39.631-32.229 71.86-71.86 71.86zM547.93 159.439c0-19.815-16.115-35.93-35.93-35.93s-35.93 16.115-35.93 35.93v107.789c0 19.815 16.115 35.93 35.93 35.93s35.93-16.115 35.93-35.93v-107.789z" />
<glyph unicode="&#xe90e;" glyph-name="shop" d="M976.936-1.806h-17.064v445.006c38.532 24.794 64.128 68.028 64.128 117.156 0 2.61-0.682 5.176-1.976 7.442l-119.026 208.296c-8.36 14.626-24.018 23.714-40.864 23.714h-700.268c-16.846 0-32.504-9.086-40.864-23.714l-119.026-208.296c-1.294-2.266-1.976-4.834-1.976-7.442 0-49.128 25.596-92.362 64.128-117.156v-445.006h-17.064c-8.284 0-15-6.716-15-15s6.716-15 15-15h929.872c8.286 0 15 6.716 15 15s-6.716 15-15 15zM31.034 545.356h48.088c8.284 0 15 6.716 15 15s-6.716 15-15 15h-38.274l106.202 185.854c3.032 5.304 8.708 8.598 14.816 8.598h700.268c6.108 0 11.786-3.294 14.816-8.598l106.2-185.854h-38.282c-8.286 0-15-6.716-15-15s6.714-15 15-15h48.096c-7.334-53.168-53.064-94.25-108.216-94.25-55.15 0-100.858 41.086-108.194 94.25h104.192c8.286 0 15 6.716 15 15s-6.714 15-15 15h-737.484c-8.284 0-15-6.716-15-15s6.716-15 15-15h104.182c-7.336-53.164-53.046-94.25-108.194-94.25-55.152 0-100.882 41.082-108.216 94.25zM744.444 545.356c-7.336-53.164-53.046-94.25-108.194-94.25-55.15 0-100.858 41.086-108.194 94.25h216.388zM495.944 545.356c-7.336-53.164-53.046-94.25-108.194-94.25s-100.858 41.086-108.194 94.25h216.388zM849.708-1.808h-162.386v50.162h162.386v-50.162zM849.708 78.354h-162.386v274.614h162.386v-274.614zM929.872-1.808h-50.162v369.776c0 8.284-6.714 15-15 15h-192.386c-8.286 0-15-6.716-15-15v-369.774h-563.196v430.458c14.162-4.866 29.33-7.546 45.122-7.546 54.19 0 101.248 31.112 124.25 76.414 23.002-45.3 70.060-76.414 124.25-76.414s101.248 31.112 124.25 76.414c23.002-45.3 70.060-76.414 124.25-76.414s101.248 31.112 124.25 76.414c23.002-45.3 70.060-76.414 124.25-76.414 15.792 0 30.96 2.68 45.122 7.544v-430.458zM592.162 382.968h-432.872c-8.284 0-15-6.716-15-15v-304.614c0-8.284 6.716-15 15-15h432.872c8.286 0 15 6.716 15 15v304.614c0 8.286-6.714 15-15 15zM577.162 78.354h-402.872v274.614h402.872v-274.614z" />
<glyph unicode="&#xe90f;" glyph-name="discount" horiz-adv-x="1022" d="M513.383 896c24.047 0 40.641-18.961 57.078-37.742 9.734-11.125 19.383-22.148 25.289-23.219 6.047-1.102 19.031 6.109 31.938 13.281 21.352 11.867 42.586 23.656 64.328 15.563 21.984-8.188 30.219-31.234 38.422-54.203 4.859-13.594 9.695-27.141 14.32-29.852 4.633-2.711 18.875-0.219 33.094 2.266 23.875 4.18 47.719 8.352 65.422-6.578 17.609-14.859 17.5-39.117 17.391-63.375-0.063-14.32-0.133-28.641 3.328-32.742 3.461-4.109 17.57-6.484 31.688-8.859 23.961-4.039 47.961-8.078 59.703-28.117 11.711-19.992 3.633-42.797-4.477-65.68-4.867-13.727-9.75-27.5-7.781-32.789 1.969-5.273 14.461-12.539 27.016-19.844 21.281-12.375 42.688-24.82 46.93-48.188 4.172-22.969-11.008-42.070-26.32-61.352-9.391-11.828-18.867-23.758-18.867-30.57 0-6.82 9.477-18.75 18.867-30.578 15.313-19.273 30.492-38.375 26.32-61.344-4.242-23.367-25.648-35.82-46.93-48.195-12.555-7.297-25.047-14.563-27.016-19.844-1.969-5.289 2.914-19.063 7.781-32.789 8.109-22.883 16.188-45.688 4.477-65.672-11.742-20.047-35.742-24.086-59.703-28.117-14.117-2.383-28.227-4.758-31.688-8.859-3.461-4.109-3.391-18.43-3.328-32.75 0.109-24.258 0.219-48.516-17.391-63.375-17.703-14.93-41.547-10.758-65.422-6.578-14.219 2.484-28.461 4.977-33.094 2.266-4.625-2.711-9.461-16.258-14.32-29.852-8.203-22.969-16.438-46.016-38.422-54.203-21.742-8.094-42.977 3.703-64.328 15.563-12.906 7.172-25.883 14.383-31.938 13.281-5.906-1.070-15.555-12.094-25.289-23.211-16.438-18.781-33.031-37.742-57.078-37.742-24.039 0-40.633 18.961-57.078 37.742-9.727 11.125-19.375 22.148-25.289 23.219-6.047 1.102-19.023-6.109-31.938-13.281-21.352-11.867-42.578-23.656-64.32-15.563-21.992 8.188-30.219 31.234-38.43 54.203-4.852 13.586-9.695 27.141-14.32 29.852s-18.867 0.219-33.094-2.273c-23.875-4.172-47.719-8.344-65.422 6.586-17.609 14.859-17.5 39.117-17.391 63.375 0.070 14.32 0.133 28.641-3.328 32.742-3.461 4.109-17.563 6.484-31.688 8.859-23.961 4.031-47.961 8.078-59.703 28.117-11.703 19.992-3.625 42.797 4.484 65.68 4.867 13.727 9.742 27.5 7.773 32.789-1.961 5.273-14.453 12.539-27.016 19.844-21.273 12.375-42.688 24.82-46.922 48.188-4.172 22.969 11 42.078 26.313 61.352 9.398 11.828 18.875 23.758 18.875 30.578 0 6.813-9.477 18.742-18.875 30.57-15.313 19.281-30.484 38.375-26.313 61.352 4.234 23.367 25.648 35.813 46.922 48.188 12.563 7.305 25.055 14.57 27.016 19.844 1.969 5.289-2.906 19.063-7.773 32.789-8.109 22.883-16.195 45.688-4.484 65.672 11.742 20.047 35.742 24.086 59.703 28.117 14.125 2.383 28.227 4.758 31.688 8.859 3.461 4.109 3.398 18.43 3.328 32.75-0.109 24.258-0.219 48.523 17.391 63.367 17.703 14.93 41.547 10.766 65.422 6.586 14.227-2.484 28.469-4.977 33.094-2.266 4.625 2.703 9.469 16.258 14.32 29.852 8.203 22.961 16.445 46.016 38.43 54.203 21.742 8.094 42.969-3.703 64.32-15.563 12.914-7.172 25.891-14.383 31.938-13.281 5.914 1.070 15.563 12.094 25.289 23.211 16.445 18.781 33.039 37.742 57.078 37.742zM761.227 637.648c-11.047 0-20-8.953-20-20 0-4.922 1.781-9.43 4.734-12.914v-0.008l-0.008 0.008 0.063-0.070c0.406-0.477 0.836-0.93 1.281-1.359 53.789-57.344 86.727-134.477 86.727-219.305 0-88.547-35.883-168.703-93.906-226.727-58.023-58.031-138.188-93.914-226.734-93.914-37.906 0-74.273 6.578-108.023 18.656-0.602 0.25-1.227 0.469-1.859 0.664l-0.047 0.023v-0.008c-1.836 0.555-3.789 0.859-5.805 0.859-11.039 0-20-8.953-20-20 0-9.063 6.031-16.711 14.289-19.172 37.945-13.57 78.836-20.969 121.445-20.969 99.57 0 189.719 40.367 254.969 105.617 65.258 65.258 105.617 155.398 105.617 254.969 0 95.281-36.961 181.922-97.313 246.383-3.672 4.438-9.219 7.266-15.43 7.266zM700.867 688.414c-11.039 0-20-8.953-20-20 0-11.039 8.961-20 20-20 11.047 0 20 8.961 20 20 0 11.047-8.953 20-20 20zM635.953 723.211c-38.266 13.828-79.531 21.375-122.57 21.375-99.57 0-189.711-40.359-254.969-105.617-65.25-65.25-105.617-155.398-105.617-254.969 0-95.078 36.805-181.555 96.93-245.977 3.672-4.391 9.188-7.188 15.359-7.188 11.047 0 20 8.953 20 20 0 4.906-1.766 9.398-4.703 12.875v0.016l-0.078 0.086c-0.391 0.461-0.805 0.898-1.234 1.313-53.547 57.305-86.328 134.258-86.328 218.875 0 88.547 35.891 168.711 93.914 226.727 58.023 58.031 138.188 93.914 226.727 93.914 38.266 0 74.961-6.703 108.984-19h0.008c2.406-1.023 5.047-1.586 7.828-1.586 11.047 0 20 8.953 20 20 0 9.047-6.008 16.688-14.25 19.156zM325.898 119.586c-11.039 0-20-8.953-20-20s8.961-20 20-20c11.047 0 20 8.953 20 20s-8.953 20-20 20zM396.945 580.562c-22.93 0-43.688-9.289-58.719-24.32-15.023-15.031-24.32-35.789-24.32-58.719 0-22.922 9.297-43.688 24.32-58.711 15.031-15.031 35.789-24.328 58.719-24.328s43.688 9.297 58.719 24.328c15.023 15.023 24.32 35.789 24.32 58.711 0 22.93-9.297 43.688-24.32 58.719-15.031 15.031-35.789 24.32-58.719 24.32zM427.422 528c7.797-7.797 12.617-18.57 12.617-30.477 0-11.898-4.82-22.68-12.617-30.477s-18.57-12.617-30.477-12.617c-11.898 0-22.68 4.828-30.477 12.617-7.797 7.797-12.617 18.578-12.617 30.477 0 11.906 4.82 22.68 12.617 30.477s18.578 12.625 30.477 12.625c11.906 0 22.68-4.828 30.477-12.625zM613.211 571.516l-232.883-353.188c-6.031-9.18-3.484-21.508 5.695-27.539s21.508-3.484 27.539 5.695l232.883 353.188c6.031 9.18 3.484 21.508-5.695 27.539s-21.508 3.484-27.539-5.695zM629.828 353.516c-22.93 0-43.695-9.297-58.719-24.32-15.023-15.031-24.32-35.797-24.32-58.719 0-22.93 9.297-43.688 24.32-58.719 15.031-15.023 35.789-24.32 58.719-24.32s43.688 9.297 58.711 24.32c15.031 15.031 24.328 35.789 24.328 58.719s-9.297 43.688-24.328 58.719c-15.023 15.023-35.781 24.32-58.711 24.32zM660.297 300.953c7.805-7.805 12.625-18.578 12.625-30.477 0-11.906-4.82-22.68-12.625-30.477-7.789-7.797-18.57-12.617-30.469-12.617-11.906 0-22.68 4.82-30.477 12.617s-12.625 18.57-12.625 30.477c0 11.898 4.828 22.68 12.625 30.477s18.57 12.617 30.477 12.617c11.898 0 22.68-4.828 30.469-12.617zM540.508 832.039c-10.461 11.953-21.016 24.016-27.117 24.016-6.109 0-16.664-12.063-27.125-24.016-14.32-16.359-28.523-32.586-48.227-36.164-20-3.633-39.203 7.039-58.305 17.656-13.313 7.398-26.555 14.75-31.086 13.063-4.469-1.664-9.602-16.023-14.711-30.328-7.273-20.352-14.516-40.641-31.797-50.758-17.398-10.195-38.758-6.461-60.086-2.727-14.727 2.57-29.445 5.148-32.805 2.305-3.484-2.938-3.422-17.867-3.352-32.789 0.102-21.68 0.195-43.359-12.695-58.648-12.852-15.242-34.195-18.836-55.563-22.43-14.789-2.492-29.617-4.984-31.922-8.93-2.297-3.914 2.719-18.078 7.758-32.281 7.25-20.461 14.523-40.984 7.461-59.938-6.969-18.711-25.602-29.547-44.336-40.445-13.359-7.766-26.805-15.586-27.734-20.727-0.945-5.211 8.664-17.305 18.359-29.516 13.75-17.305 27.617-34.758 27.617-55.383 0-20.633-13.867-38.078-27.617-55.391-9.695-12.203-19.305-24.297-18.359-29.516 0.93-5.141 14.375-12.953 27.734-20.727 18.734-10.891 37.367-21.727 44.336-40.438 7.063-18.961-0.211-39.484-7.461-59.945-5.039-14.203-10.055-28.359-7.758-32.281 2.305-3.938 17.125-6.438 31.922-8.922 21.375-3.602 42.711-7.188 55.563-22.438 12.891-15.281 12.797-36.961 12.695-58.648-0.070-14.922-0.133-29.844 3.352-32.789 3.367-2.836 18.078-0.266 32.805 2.313 21.328 3.727 42.688 7.469 60.086-2.727 17.281-10.117 24.531-30.406 31.797-50.758 5.109-14.305 10.242-28.672 14.711-30.328 4.531-1.688 17.773 5.664 31.086 13.063 19.102 10.609 38.305 21.281 58.305 17.648 19.711-3.57 33.906-19.797 48.227-36.164 10.461-11.953 21.016-24.016 27.125-24.016 6.102 0 16.656 12.063 27.117 24.016 14.32 16.367 28.523 32.594 48.219 36.164 20 3.633 39.211-7.039 58.313-17.648 13.313-7.398 26.555-14.75 31.086-13.063 4.469 1.656 9.602 16.023 14.711 30.328 7.273 20.352 14.516 40.633 31.789 50.758 17.406 10.195 38.758 6.461 60.086 2.727 14.734-2.578 29.445-5.156 32.82-2.313 3.477 2.945 3.414 17.867 3.344 32.789-0.102 21.68-0.195 43.367 12.695 58.648 12.852 15.25 34.188 18.836 55.555 22.438 14.797 2.484 29.625 4.984 31.93 8.922 2.297 3.922-2.719 18.078-7.758 32.281-7.25 20.461-14.523 40.984-7.461 59.945 6.961 18.711 25.602 29.547 44.328 40.438 13.367 7.773 26.805 15.586 27.742 20.727 0.945 5.219-8.664 17.313-18.359 29.516-13.75 17.313-27.617 34.758-27.617 55.391 0 20.625 13.867 38.078 27.617 55.383 9.695 12.211 19.305 24.305 18.359 29.516-0.938 5.141-14.375 12.961-27.742 20.727-18.727 10.898-37.367 21.734-44.328 40.445-7.063 18.953 0.211 39.477 7.461 59.938 5.039 14.203 10.055 28.367 7.758 32.281-2.305 3.945-17.133 6.438-31.93 8.93-21.367 3.594-42.703 7.188-55.555 22.43-12.891 15.289-12.797 36.969-12.695 58.648 0.070 14.922 0.133 29.852-3.344 32.789-3.375 2.844-18.086 0.266-32.82-2.305-21.328-3.734-42.68-7.469-60.078 2.727-17.281 10.117-24.531 30.406-31.797 50.758-5.109 14.305-10.242 28.664-14.711 30.328-4.531 1.688-17.773-5.664-31.086-13.063-19.109-10.617-38.313-21.289-58.313-17.656-19.703 3.578-33.898 19.805-48.219 36.164z" />
<glyph unicode="&#xe910;" glyph-name="linkedin" d="M341.333 622.933c0-17.067-6.827-34.133-20.48-47.787-10.24-10.24-30.72-17.067-51.2-17.067s-37.547 6.827-51.2 20.48c-13.653 10.24-17.067 27.307-17.067 44.373s6.827 34.133 20.48 47.787c10.24 13.653 27.307 20.48 47.787 20.48s37.547-6.827 51.2-20.48c13.653-10.24 20.48-27.307 20.48-47.787zM204.8 76.8v430.080h133.12v-430.080h-133.12zM416.427 366.933c0 27.307 0 51.2 0 75.093s0 44.373-3.413 64.853h116.053l6.827-58.027h3.413c6.827 13.653 23.893 27.307 44.373 44.373s51.2 23.893 85.333 23.893c44.373 0 81.92-13.653 109.227-44.373 30.72-30.72 44.373-75.093 44.373-139.947v-256h-133.12v238.933c0 27.307-6.827 51.2-17.067 68.267s-27.307 27.307-51.2 27.307c-17.067 0-34.133-3.413-44.373-13.653s-20.48-20.48-23.893-34.133c-3.413-3.413-3.413-10.24-3.413-13.653 0-6.827 0-10.24 0-17.067v-256h-133.12v290.133z" />
<glyph unicode="&#xe911;" glyph-name="pinterest" d="M471.040 285.013c-3.413-20.48-10.24-40.96-13.653-61.44s-10.24-40.96-17.067-58.027c-6.827-17.067-17.067-34.133-27.307-51.2-10.24-13.653-20.48-27.307-37.547-37.547-3.413 30.72-6.827 61.44-3.413 92.16 3.413 27.307 6.827 54.613 13.653 81.92s13.653 51.2 20.48 78.507c6.827 23.893 13.653 51.2 17.067 75.093-10.24 13.653-13.653 30.72-13.653 51.2s3.413 37.547 10.24 54.613 17.067 30.72 30.72 37.547c13.653 10.24 30.72 10.24 47.787 3.413 13.653-6.827 23.893-17.067 27.307-27.307 3.413-13.653 3.413-27.307-3.413-44.373s-10.24-34.133-13.653-51.2c-6.827-17.067-10.24-34.133-13.653-51.2s0-30.72 3.413-40.96c3.413-10.24 17.067-20.48 34.133-23.893 20.48-3.413 37.547 0 54.613 6.827 17.067 10.24 30.72 20.48 40.96 37.547s20.48 37.547 27.307 58.027c6.827 20.48 10.24 44.373 10.24 64.853s-3.413 44.373-10.24 64.853c-6.827 20.48-13.653 37.547-27.307 47.787-17.067 17.067-37.547 30.72-61.44 37.547-20.48 6.827-44.373 10.24-68.267 6.827s-44.373-10.24-64.853-20.48c-20.48-10.24-37.547-23.893-54.613-44.373-13.653-17.067-27.307-37.547-34.133-61.44s-10.24-47.787-6.827-71.68c0-10.24 3.413-17.067 10.24-23.893 3.413-6.827 10.24-13.653 13.653-20.48s6.827-17.067 6.827-23.893c0-10.24-3.413-20.48-10.24-34.133-34.133 6.827-58.027 23.893-71.68 51.2s-13.653 54.613-13.653 88.747c0 30.72 6.827 58.027 20.48 81.92s27.307 44.373 47.787 64.853c20.48 17.067 40.96 34.133 64.853 44.373s51.2 20.48 75.093 20.48c30.72 3.413 61.44 3.413 92.16-3.413s58.027-17.067 81.92-30.72c27.307-13.653 47.787-30.72 61.44-54.613 17.067-23.893 27.307-47.787 30.72-78.507 3.413-34.133 3.413-68.267-3.413-102.4s-20.48-64.853-34.133-88.747c-17.067-27.307-37.547-47.787-64.853-61.44s-58.027-20.48-92.16-20.48c-20.48 0-34.133 6.827-44.373 13.653s-23.893 13.653-37.547 23.893z" />
<glyph unicode="&#xe912;" glyph-name="instagram" d="M723.627 691.2c27.307 0 47.787-10.24 68.267-27.307 17.067-20.48 27.307-40.96 27.307-68.267v-105.813h-157.013c-17.067 23.893-37.547 44.373-64.853 58.027s-54.613 20.48-85.333 20.48c-30.72 0-61.44-6.827-88.747-20.48s-47.787-34.133-64.853-58.027h-153.6v105.813c0 27.307 10.24 47.787 27.307 68.267 20.48 17.067 40.96 27.307 68.267 27.307h423.253zM696.32 384c0 13.653 0 23.893-3.413 34.133h126.293v-245.76c0-27.307-10.24-51.2-27.307-68.267-17.067-20.48-40.96-27.307-68.267-27.307h-423.253c-27.307 0-47.787 10.24-68.267 27.307-17.067 20.48-27.307 40.96-27.307 68.267v245.76h122.88c0-6.827 0-10.24-3.413-17.067 0-6.827 0-13.653 0-17.067 0-27.307 3.413-51.2 13.653-71.68 10.24-23.893 23.893-40.96 40.96-58.027s37.547-30.72 58.027-40.96 47.787-13.653 71.68-13.653 51.2 3.413 71.68 13.653c23.893 10.24 40.96 23.893 58.027 40.96s30.72 37.547 40.96 58.027c13.653 20.48 17.067 44.373 17.067 71.68zM628.053 384c0-30.72-10.24-58.027-34.133-81.92s-47.787-34.133-81.92-34.133c-30.72 0-58.027 10.24-81.92 34.133s-34.133 47.787-34.133 81.92c0 30.72 10.24 58.027 34.133 81.92 23.893 20.48 47.787 34.133 81.92 34.133 30.72 0 58.027-10.24 81.92-34.133 20.48-23.893 34.133-51.2 34.133-81.92zM768 622.933c0 10.24-6.827 17.067-17.067 17.067h-51.2c-3.413 0-10.24 0-13.653-3.413 0-3.413-3.413-6.827-3.413-13.653v-51.2c0-3.413 0-10.24 3.413-13.653s6.827-3.413 13.653-3.413h51.2c3.413 0 10.24 3.413 13.653 3.413 3.413 3.413 3.413 6.827 3.413 13.653v51.2z" />
<glyph unicode="&#xe913;" glyph-name="twitter" d="M890.88 619.52c-20.48-30.72-44.373-58.027-78.507-81.92v-20.48c0-51.2-10.24-102.4-27.307-157.013-20.48-51.2-47.787-98.987-85.333-143.36-37.547-40.96-81.92-78.507-139.947-102.4-54.613-23.893-116.053-37.547-187.733-37.547-88.747 0-167.253 23.893-238.933 68.267 6.827 0 10.24 0 17.067 0s13.653 0 20.48 0c37.547 0 71.68 6.827 102.4 17.067 34.133 10.24 61.44 27.307 88.747 47.787-34.133 0-64.853 10.24-92.16 30.72s-44.373 44.373-54.613 78.507c6.827-3.413 13.653-3.413 17.067-3.413s10.24 0 13.653 0c13.653 0 27.307 3.413 40.96 3.413-34.133 6.827-64.853 27.307-88.747 54.613s-34.133 61.44-34.133 98.987v0c20.48-10.24 44.373-17.067 68.267-20.48-20.48 13.653-37.547 34.133-51.2 54.613-10.24 27.307-17.067 51.2-17.067 78.507s6.827 51.2 20.48 78.507c37.547-47.787 85.333-85.333 139.947-116.053s116.053-44.373 180.907-47.787c-3.413 10.24-3.413 20.48-3.413 34.133 0 20.48 3.413 40.96 13.653 61.44 6.827 20.48 20.48 34.133 34.133 47.787s30.72 23.893 47.787 34.133c17.067 10.24 40.96 13.653 61.44 13.653 44.373 0 81.92-17.067 112.64-47.787 17.067 3.413 37.547 6.827 51.2 13.653 17.067 6.827 30.72 13.653 47.787 23.893-10.24-37.547-34.133-64.853-68.267-85.333 30.72 3.413 61.44 10.24 88.747 23.893z" />
<glyph unicode="&#xe914;" glyph-name="facebook" d="M682.667 585.387h-95.573c-6.827 0-13.653-3.413-17.067-10.24s-6.827-13.653-6.827-23.893v-68.267h119.467v-102.4h-122.88v-303.787h-116.053v300.373h-102.4v102.4h102.4v58.027c0 44.373 13.653 78.507 40.96 109.227s61.44 44.373 102.4 44.373h95.573v-105.813z" />
<glyph unicode="&#xe915;" glyph-name="question" d="M542.72 237.227c0-16.966-13.754-30.72-30.72-30.72s-30.72 13.754-30.72 30.72c0 16.966 13.754 30.72 30.72 30.72s30.72-13.754 30.72-30.72zM512 691.2c-170.667 0-307.2-136.533-307.2-307.2s136.533-307.2 307.2-307.2c170.667 0 307.2 136.533 307.2 307.2s-136.533 307.2-307.2 307.2zM512 124.587c-143.36 0-259.413 116.053-259.413 259.413s116.053 259.413 259.413 259.413c143.36 0 259.413-116.053 259.413-259.413s-116.053-259.413-259.413-259.413zM512 537.6c-54.613 0-95.573-44.373-95.573-95.573 0-13.653 10.24-23.893 23.893-23.893s23.893 10.24 23.893 23.893c0 27.307 20.48 47.787 47.787 47.787s47.787-20.48 47.787-47.787-20.48-47.787-47.787-47.787c-13.653 0-23.893-10.24-23.893-23.893v-61.44c0-13.653 10.24-23.893 23.893-23.893s23.893 10.24 23.893 23.893v37.547c40.96 10.24 71.68 47.787 71.68 92.16 0 54.613-40.96 98.987-95.573 98.987z" />
<glyph unicode="&#xe916;" glyph-name="search" d="M641.707 278.187c44.373 47.787 71.68 109.227 71.68 180.907 0 146.773-119.467 266.24-266.24 266.24s-266.24-119.467-266.24-266.24 119.467-266.24 266.24-266.24c58.027 0 116.053 20.48 160.427 51.2l197.973-197.973c3.413-3.413 10.24-6.827 17.067-6.827s13.653 3.413 17.067 6.827c10.24 10.24 10.24 23.893 0 34.133l-197.973 197.973zM228.693 459.093c0 119.467 98.987 218.453 218.453 218.453s218.453-98.987 218.453-218.453-98.987-218.453-218.453-218.453-218.453 98.987-218.453 218.453z" />
<glyph unicode="&#xe917;" glyph-name="afisler" horiz-adv-x="977" d="M900.145 553.007c-90.089 209.59-235.042 369.232-308.395 339.399-124.553-50.62 74.194-293.74-537.429-542.356-52.827-21.47-66.219-107.418-44.112-158.8 22.062-51.371 94.333-102.514 147.183-81.044 9.136 3.709 42.712 14.507 42.712 14.507 37.729-50.631 77.221-20.605 91.227-52.782 16.828-38.662 53.441-122.709 65.866-151.302 12.47-28.57 40.687-55.034 61.178-47.252 20.423 7.782 89.998 34.258 116.622 44.385 26.601 10.126 32.95 33.838 24.826 52.554-8.772 20.161-44.737 26.078-54.977 49.607-10.263 23.529-43.782 98.941-53.419 122.709-13.107 32.324 14.734 58.618 55.182 62.828 278.38 29.013 330.422-142.916 425.199-104.368 73.341 29.833 58.402 242.313-31.664 451.914zM868.788 212.993c-16.293-6.622-125.85 79.792-195.868 242.734-69.996 162.907-61.201 311.842-44.931 318.453 16.27 6.622 123.13-97.621 193.138-260.528 69.996-162.907 63.954-294.036 47.662-300.658z" />
<glyph unicode="&#xe918;" glyph-name="minus" d="M638.293 462.507h-365.227v-157.013h477.867v157.013z" />
<glyph unicode="&#xe919;" glyph-name="plus" d="M433.493 622.933v-160.427h-160.427v-157.013h160.427v-160.427h157.013v160.427h160.427v157.013h-160.427v160.427z" />
<glyph unicode="&#xe91a;" glyph-name="clock" d="M505.173 691.2c85.333 0 160.427-34.133 218.453-88.747s92.16-133.12 92.16-218.453-30.72-160.427-85.333-218.453c-51.2-54.613-129.707-88.747-211.627-88.747s-160.427 34.133-218.453 88.747c-58.027 58.027-95.573 133.12-95.573 218.453s30.72 160.427 85.333 218.453c54.613 54.613 133.12 88.747 215.040 88.747zM669.013 401.067c10.24 0 17.067-6.827 17.067-17.067s-6.827-17.067-17.067-17.067h-157.013c-6.827 0-10.24 3.413-13.653 6.827v0 0 0 0 0 0 0 0 0 0 0 0 0 0 0 0 0 0 0 0 0 0l-3.413 201.387c0 10.24 6.827 17.067 17.067 17.067s17.067-6.827 17.067-17.067l3.413-184.32h136.533zM703.147 578.56c-51.2 47.787-119.467 78.507-194.56 78.507s-143.36-30.72-191.147-78.507c-51.2-51.2-81.92-119.467-78.507-194.56s34.133-143.36 81.92-194.56c51.2-51.2 119.467-78.507 194.56-78.507s143.36 30.72 191.147 78.507c47.787 51.2 78.507 119.467 78.507 194.56s-34.133 143.36-81.92 194.56z" />
<glyph unicode="&#xe91b;" glyph-name="online_shop" horiz-adv-x="1071" d="M519.666 896c-282.961 0-512-228.992-512-512v-512h512c282.961 0 512 228.992 512 512 0 282.961-228.992 512-512 512zM729.775 65.914l-210.109 80.187-210.109-80.18 11.328 224.602-141.18 175.047 217.109 58.633 122.852 188.367 122.852-188.367 217.117-58.633-141.188-175.047 11.328-224.609z" />
<glyph unicode="&#xe91c;" glyph-name="hesabim" horiz-adv-x="838" d="M435.172 395.197c113.851 0 206.155 112.108 206.155 250.4 0 138.296-30.305 250.403-206.155 250.403s-206.16-112.108-206.16-250.403c0-138.293 92.303-250.4 206.16-250.4zM824.102 22.976c-3.818 240.909-35.281 309.555-276.047 353.008 0 0-33.891-43.186-112.886-43.186s-112.892 43.186-112.892 43.186c-238.139-42.979-271.515-110.607-275.904-345.182-0.36-19.155-0.527-20.161-0.591-17.938 0.015-4.166 0.032-11.873 0.032-25.31 0 0 57.321-115.554 389.354-115.554 332.028 0 389.354 115.554 389.354 115.554 0 8.634 0.006 14.637 0.015 18.722-0.064-1.375-0.193 1.29-0.436 16.7z" />
<glyph unicode="&#xe91d;" glyph-name="delivery" d="M921.6 431.787l-23.893 98.987c6.827 0 10.24 6.827 10.24 13.653v17.067c0 34.133-27.307 64.853-61.44 64.853h-112.64v34.133c0 17.067-13.653 30.72-30.72 30.72h-573.44c-17.067 0-30.72-13.653-30.72-30.72v-276.48c0-6.827 6.827-13.653 13.653-13.653s13.653 6.827 13.653 13.653v276.48c0 0 0 0 0 0h573.44c0 0 0 0 0 0v-276.48c0-6.827 6.827-13.653 13.653-13.653s13.653 6.827 13.653 13.653v17.067h177.493c0 0 0 0 0 0s0 0 0 0c20.48 0 40.96-13.653 47.787-34.133h-47.787c-6.827 0-13.653-6.827-13.653-13.653v-34.133c0-27.307 20.48-47.787 47.787-47.787h17.067v-68.267h-34.133c-13.653 37.547-47.787 64.853-88.747 64.853s-75.093-27.307-88.747-64.853h-6.827v116.053c0 6.827-6.827 13.653-13.653 13.653s-13.653-6.827-13.653-13.653v-116.053h-310.613c-13.653 37.547-47.787 64.853-88.747 64.853s-75.093-27.307-88.747-64.853h-92.16c0 0 0 0 0 0v34.133h64.853c6.827 0 13.653 6.827 13.653 13.653s-6.827 13.653-13.653 13.653h-146.773c-6.827 0-13.653-6.827-13.653-13.653s6.827-13.653 13.653-13.653h47.787v-34.133c0-17.067 13.653-30.72 30.72-30.72h81.92c0 0 0 0 0 0 0-54.613 40.96-95.573 95.573-95.573s95.573 44.373 95.573 95.573c0 0 0 0 0 0h337.92c0 0 0 0 0 0 0-54.613 40.96-95.573 95.573-95.573s95.573 44.373 95.573 95.573c0 0 0 0 0 0h47.787c6.827 0 13.653 6.827 13.653 13.653v163.84c0 40.96-30.72 75.093-68.267 81.92zM733.867 595.627h112.64c17.067 0 34.133-13.653 34.133-34.133v0h-146.773v34.133zM733.867 431.787v98.987h133.12l23.893-98.987h-157.013zM303.787 107.52c-34.133 0-64.853 30.72-64.853 64.853 0 37.547 30.72 64.853 64.853 64.853s64.853-30.72 64.853-64.853c0-34.133-27.307-64.853-64.853-64.853zM832.853 107.52c-34.133 0-64.853 30.72-64.853 64.853 0 37.547 30.72 64.853 64.853 64.853s64.853-30.72 64.853-64.853c0-34.133-30.72-64.853-64.853-64.853zM959.147 302.080h-17.067c-10.24 0-17.067 6.827-17.067 17.067v17.067h34.133v-34.133zM303.787 203.093c-17.067 0-30.72-13.653-30.72-30.72s13.653-30.72 30.72-30.72c17.067 0 30.72 13.653 30.72 30.72s-13.653 30.72-30.72 30.72zM832.853 203.093c-17.067 0-30.72-13.653-30.72-30.72s13.653-30.72 30.72-30.72c17.067 0 30.72 13.653 30.72 30.72s-13.653 30.72-30.72 30.72zM655.36 267.947h-221.867c-6.827 0-13.653-6.827-13.653-13.653s6.827-13.653 13.653-13.653h221.867c6.827 0 13.653 6.827 13.653 13.653s-3.413 13.653-13.653 13.653zM273.067 332.8h-191.147c-6.827 0-13.653-6.827-13.653-13.653s6.827-13.653 13.653-13.653h191.147c6.827 0 13.653 6.827 13.653 13.653s-6.827 13.653-13.653 13.653zM552.96 541.013c-6.827 6.827-13.653 6.827-20.48 0l-133.12-136.533-68.267 71.68c-6.827 6.827-13.653 6.827-20.48 0s-6.827-17.067 0-20.48l78.507-81.92c3.413-3.413 6.827-3.413 10.24-3.413s6.827 0 10.24 3.413l143.36 146.773c6.827 3.413 6.827 13.653 0 20.48z" />
<glyph unicode="&#xe91e;" glyph-name="calendar" d="M757.76 640h-58.027v13.653c0 20.48-17.067 37.547-37.547 37.547s-37.547-17.067-37.547-37.547v-17.067h-201.387v17.067c0 20.48-17.067 37.547-37.547 37.547s-37.547-17.067-37.547-37.547v-17.067c0 0-3.413 0-3.413 0h-40.96c-34.133 0-61.44-27.307-61.44-61.44v-204.8c0-6.827 6.827-13.653 13.653-13.653s13.653 6.827 13.653 13.653v139.947h433.493c6.827 0 13.653 6.827 13.653 13.653s-6.827 13.653-13.653 13.653h-433.493v40.96c0 20.48 17.067 37.547 37.547 37.547h47.787c0 0 3.413 0 3.413 0v-17.067c0-20.48 17.067-37.547 37.547-37.547s37.547 17.067 37.547 37.547v17.067h201.387v-13.653c0-20.48 17.067-37.547 37.547-37.547s37.547 17.067 37.547 37.547v13.653h58.027c20.48 0 37.547-17.067 37.547-37.547v-457.387c0-10.24-10.24-20.48-20.48-20.48s-20.48 10.24-20.48 20.48v30.72c0 6.827-6.827 13.653-13.653 13.653h-139.947c-6.827 0-13.653-6.827-13.653-13.653s6.827-13.653 13.653-13.653h126.293v-20.48c0-6.827 3.413-13.653 6.827-20.48h-494.933c-10.24 0-20.48 10.24-20.48 20.48v20.48h269.653c6.827 0 13.653 6.827 13.653 13.653s-6.827 13.653-13.653 13.653h-119.467c20.48 17.067 34.133 44.373 34.133 75.093 0 54.613-44.373 98.987-98.987 98.987s-98.987-44.373-98.987-98.987c0-30.72 13.653-58.027 34.133-75.093h-34.133c-6.827 0-13.653-6.827-13.653-13.653v-30.72c3.413-23.893 23.893-44.373 47.787-44.373h522.24c23.893 0 44.373 20.48 44.373 44.373v457.387c3.413 34.133-23.893 61.44-58.027 61.44zM402.773 599.040c0-6.827-6.827-13.653-13.653-13.653s-13.653 6.827-13.653 13.653v54.613c0 6.827 6.827 13.653 13.653 13.653s13.653-6.827 13.653-13.653v-54.613zM679.253 599.040c0-6.827-6.827-13.653-13.653-13.653s-13.653 6.827-13.653 13.653v54.613c0 6.827 6.827 13.653 13.653 13.653s13.653-6.827 13.653-13.653v-54.613zM238.933 240.64c0 40.96 34.133 75.093 75.093 75.093s75.093-34.133 75.093-75.093-34.133-75.093-75.093-75.093-75.093 34.133-75.093 75.093zM768 534.187c-3.413 3.413-6.827 3.413-6.827 3.413-3.413 0-6.827 0-6.827-3.413-3.413-3.413-3.413-6.827-3.413-6.827s0-6.827 3.413-6.827c3.413-3.413 6.827-3.413 6.827-3.413 3.413 0 6.827 0 6.827 3.413 3.413 3.413 3.413 6.827 3.413 6.827s-3.413 6.827-3.413 6.827zM563.2 162.133c-3.413 3.413-6.827 3.413-6.827 3.413-3.413 0-6.827 0-6.827-3.413-3.413-3.413-3.413-6.827-3.413-6.827 0-3.413 0-6.827 3.413-6.827 3.413-3.413 6.827-3.413 6.827-3.413 3.413 0 6.827 0 6.827 3.413 3.413 3.413 3.413 6.827 3.413 6.827s0 3.413-3.413 6.827zM477.867 325.973c-23.893 0-44.373-20.48-44.373-44.373s20.48-44.373 44.373-44.373c23.893 0 44.373 20.48 44.373 44.373s-20.48 44.373-44.373 44.373zM477.867 257.707c-10.24 0-20.48 10.24-20.48 20.48s10.24 20.48 20.48 20.48 20.48-10.24 20.48-20.48-10.24-20.48-20.48-20.48zM587.093 325.973c-23.893 0-44.373-20.48-44.373-44.373s20.48-44.373 44.373-44.373 44.373 20.48 44.373 44.373-17.067 44.373-44.373 44.373zM587.093 257.707c-10.24 0-20.48 10.24-20.48 20.48s10.24 20.48 20.48 20.48c10.24 0 20.48-10.24 20.48-20.48s-6.827-20.48-20.48-20.48zM699.733 325.973c-23.893 0-44.373-20.48-44.373-44.373s20.48-44.373 44.373-44.373 44.373 20.48 44.373 44.373-17.067 44.373-44.373 44.373zM699.733 257.707c-10.24 0-20.48 10.24-20.48 20.48s10.24 20.48 20.48 20.48 20.48-10.24 20.48-20.48-6.827-20.48-20.48-20.48zM365.227 452.267c-23.893 0-44.373-20.48-44.373-44.373s20.48-44.373 44.373-44.373 44.373 20.48 44.373 44.373-20.48 44.373-44.373 44.373zM365.227 384c-10.24 0-20.48 10.24-20.48 20.48s10.24 20.48 20.48 20.48 20.48-10.24 20.48-20.48-10.24-20.48-20.48-20.48zM587.093 452.267c-23.893 0-44.373-20.48-44.373-44.373s20.48-44.373 44.373-44.373 44.373 20.48 44.373 44.373-17.067 44.373-44.373 44.373zM587.093 384c-10.24 0-20.48 10.24-20.48 20.48s10.24 20.48 20.48 20.48c10.24 0 20.48-10.24 20.48-20.48s-6.827-20.48-20.48-20.48zM699.733 452.267c-23.893 0-44.373-20.48-44.373-44.373s20.48-44.373 44.373-44.373 44.373 20.48 44.373 44.373-17.067 44.373-44.373 44.373zM699.733 384c-10.24 0-20.48 10.24-20.48 20.48s10.24 20.48 20.48 20.48 20.48-10.24 20.48-20.48-6.827-20.48-20.48-20.48zM477.867 452.267c-23.893 0-44.373-20.48-44.373-44.373s20.48-44.373 44.373-44.373c23.893 0 44.373 20.48 44.373 44.373s-20.48 44.373-44.373 44.373zM477.867 384c-10.24 0-20.48 10.24-20.48 20.48s10.24 20.48 20.48 20.48 20.48-10.24 20.48-20.48-10.24-20.48-20.48-20.48zM354.987 267.947c-3.413 3.413-13.653 3.413-17.067 0l-37.547-37.547-13.653 13.653c-3.413 3.413-13.653 3.413-17.067 0s-3.413-13.653 0-17.067l20.48-20.48c3.413-3.413 6.827-3.413 6.827-3.413 3.413 0 6.827 0 6.827 3.413l47.787 47.787c10.24 3.413 10.24 10.24 3.413 13.653z" />
<glyph unicode="&#xe91f;" glyph-name="chevron_down" d="M512 339.627l-184.32 177.493c-3.413 3.413-13.653 3.413-17.067 0l-34.133-30.72c-3.413-3.413-3.413-13.653 0-17.067l225.28-218.453c3.413-3.413 6.827-3.413 10.24-3.413s6.827 0 10.24 3.413l225.28 218.453c3.413 3.413 3.413 13.653 0 17.067l-34.133 30.72c-3.413 3.413-13.653 3.413-17.067 0l-184.32-177.493z" />
<glyph unicode="&#xe920;" glyph-name="chevron_up" d="M512 428.373l-184.32-177.493c-3.413-3.413-13.653-3.413-17.067 0l-34.133 30.72c-3.413 3.413-3.413 13.653 0 17.067l225.28 218.453c3.413 3.413 6.827 3.413 10.24 3.413s6.827 0 10.24-3.413l225.28-218.453c3.413-3.413 3.413-13.653 0-17.067l-34.133-30.72c-3.413-3.413-13.653-3.413-17.067 0l-184.32 177.493z" />
<glyph unicode="&#xe921;" glyph-name="chevron_left" d="M467.627 384l177.493 184.32c3.413 3.413 3.413 13.653 0 17.067l-30.72 34.133c-3.413 3.413-13.653 3.413-17.067 0l-218.453-225.28c-3.413-3.413-3.413-6.827-3.413-10.24s0-6.827 3.413-10.24l218.453-225.28c3.413-3.413 13.653-3.413 17.067 0l30.72 34.133c3.413 3.413 3.413 13.653 0 17.067l-177.493 184.32z" />
<glyph unicode="&#xe922;" glyph-name="chevron_right" d="M556.373 384l-177.493 184.32c-3.413 3.413-3.413 13.653 0 17.067l30.72 34.133c3.413 3.413 13.653 3.413 17.067 0l218.453-225.28c3.413-3.413 3.413-6.827 3.413-10.24s0-6.827-3.413-10.24l-218.453-225.28c-3.413-3.413-13.653-3.413-17.067 0l-30.72 34.133c-3.413 3.413-3.413 13.653 0 17.067l177.493 184.32z" />
<glyph unicode="&#xe923;" glyph-name="close" d="M566.613 384l242.347 242.347c13.653 13.653 13.653 40.96 0 54.613s-40.96 13.653-54.613 0l-242.347-242.347-242.347 242.347c-13.653 13.653-40.96 13.653-54.613 0s-13.653-40.96 0-54.613l242.347-242.347-242.347-242.347c-13.653-13.653-13.653-40.96 0-54.613 6.827-6.827 17.067-10.24 27.307-10.24s20.48 3.413 27.307 10.24l242.347 242.347 242.347-242.347c6.827-6.827 17.067-10.24 27.307-10.24s20.48 3.413 27.307 10.24c13.653 13.653 13.653 40.96 0 54.613l-242.347 242.347z" />
<glyph unicode="&#xe924;" glyph-name="arrow_left" d="M358.4 680.96c13.653 13.653 30.72 13.653 44.373 0 13.653-10.24 13.653-30.72 0-44.373l-225.28-221.867h744.107c17.067 0 30.72-13.653 30.72-30.72s-13.653-30.72-30.72-30.72h-744.107l225.28-221.867c13.653-13.653 13.653-30.72 0-44.373s-30.72-13.653-44.373 0l-276.48 276.48c-13.653 10.24-13.653 30.72 0 44.373l276.48 273.067z" />
<glyph unicode="&#xe925;" glyph-name="arrow_right" d="M665.6 680.96c-13.653 13.653-30.72 13.653-44.373 0-13.653-10.24-13.653-30.72 0-44.373l225.28-221.867h-744.107c-17.067 0-30.72-13.653-30.72-30.72s13.653-30.72 30.72-30.72h740.693l-225.28-221.867c-13.653-13.653-13.653-30.72 0-44.373s30.72-13.653 44.373 0l276.48 276.48c13.653 10.24 13.653 30.72 0 44.373l-273.067 273.067z" />
<glyph unicode="&#xe926;" glyph-name="sepet" horiz-adv-x="1071" d="M179.994-14.222c0-62.839 50.938-113.778 113.789-113.778s113.766 50.938 113.766 113.778c0 62.839-50.916 113.778-113.766 113.778s-113.789-50.938-113.789-113.778zM748.883-14.222c0-62.839 50.938-113.778 113.789-113.778s113.766 50.938 113.766 113.778c0 62.839-50.916 113.778-113.766 113.778s-113.789-50.938-113.789-113.778zM381.79 254.726l629.669 179.905c12.038 3.447 21.879 16.498 21.879 29.013v312.889h-802.133v96.711c0 12.516-10.229 22.756-22.756 22.756h-176.356c-12.527 0-22.756-10.24-22.756-22.756v-91.022h110.569l111.946-515.231 10.729-53.658v-85.333c0-12.516 10.229-22.756 22.756-22.756h745.244c12.527 0 22.756 10.24 22.756 22.756v85.333h-639.875c-65.399 0-66.731 25.634-11.674 41.392z" />
<glyph unicode="&#xe927;" glyph-name="bulten" horiz-adv-x="1396" d="M1361.249 45.224c0-29.842-8.394-57.507-21.841-81.847l-429.802 480.887 425.142 371.962c16.538-26.245 26.501-57.075 26.501-90.39v-680.612zM680.626 356.95l591.572 517.611c-24.276 13.29-51.612 21.439-81.101 21.439h-1020.942c-29.525 0-56.87-8.15-81.047-21.439l591.519-517.611zM845.552 388.264l-136.933-119.889c-8.010-6.977-17.983-10.462-27.993-10.462-10.016 0-19.989 3.484-27.999 10.462l-136.964 119.895-435.239-487.034c26.088-16.367 56.662-26.172 89.728-26.172h1020.945c33.060 0 63.648 9.805 89.728 26.172l-435.273 487.028zM26.506 816.229c-16.535-26.245-26.506-57.075-26.506-90.393v-680.615c0-29.842 8.355-57.507 21.852-81.847l429.752 480.971-425.097 371.883z" />
<glyph unicode="&#xe928;" glyph-name="check" d="M897.707 537.6l-447.147-447.147c-10.24-10.24-23.893-13.653-34.133-13.653s-27.307 6.827-34.133 13.653l-259.413 259.413c-10.24 10.24-13.653 23.893-13.653 34.133s6.827 27.307 13.653 34.133l71.68 71.68c10.24 10.24 23.893 13.653 34.133 13.653s27.307-6.827 34.133-13.653l153.6-153.6 337.92 341.333c10.24 10.24 23.893 13.653 34.133 13.653s27.307-6.827 34.133-13.653l71.68-71.68c10.24-10.24 13.653-23.893 13.653-34.133s0-27.307-10.24-34.133z" />
<glyph unicode="&#xe929;" glyph-name="checked" d="M450.56 216.747c3.413-3.413 6.827-3.413 10.24-3.413s10.24 3.413 13.653 6.827l273.067 307.2c6.827 6.827 6.827 17.067 0 23.893s-17.067 6.827-23.893 0l-262.827-293.547-157.013 126.293c-6.827 6.827-17.067 3.413-23.893-3.413s-3.413-17.067 3.413-23.893l167.253-139.947zM0 896v-1024h1024v1024h-1024zM989.867-93.867h-955.733v955.733h955.733v-955.733z" />
<glyph unicode="&#xe92a;" glyph-name="box" d="M0 896v-1024h1024v1024h-1024zM989.867-93.867h-955.733v955.733h955.733v-955.733z" />
<glyph unicode="&#xe92b;" glyph-name="help" d="M512 896c-283.307 0-512-228.693-512-512s228.693-512 512-512 512 228.693 512 512-228.693 512-512 512zM730.453 384c0-122.88-98.987-218.453-218.453-218.453s-218.453 95.573-218.453 218.453 98.987 218.453 218.453 218.453 218.453-95.573 218.453-218.453zM512 824.32c95.573 0 180.907-30.72 252.587-81.92l-105.813-105.813c-44.373 23.893-92.16 40.96-146.773 40.96s-102.4-17.067-146.773-40.96l-105.813 102.4c71.68 51.2 157.013 85.333 252.587 85.333zM71.68 384c0 95.573 30.72 180.907 81.92 252.587l105.813-105.813c-23.893-44.373-40.96-92.16-40.96-146.773s17.067-102.4 40.96-146.773l-105.813-105.813c-47.787 71.68-81.92 157.013-81.92 252.587zM512-56.32c-95.573 0-180.907 30.72-252.587 81.92l105.813 105.813c44.373-27.307 92.16-40.96 146.773-40.96s102.4 17.067 146.773 40.96l105.813-105.813c-71.68-47.787-157.013-81.92-252.587-81.92zM866.987 131.413l-105.813 105.813c27.307 44.373 40.96 92.16 40.96 146.773s-17.067 102.4-40.96 146.773l105.813 105.813c51.2-71.68 81.92-157.013 81.92-252.587s-30.72-180.907-81.92-252.587z" />
<glyph unicode="&#xe92c;" glyph-name="close_menu" d="M339.383 187.977c8.777-8.777 23.406-8.777 32.183-2.926l155.063 155.063 155.063-155.063c8.777-8.777 23.406-8.777 32.183 2.926s8.777 23.406 2.926 32.183l-155.063 155.063 155.063 155.063c8.777 8.777 8.777 23.406-2.926 32.183s-23.406 8.777-32.183 2.926l-155.063-157.989-155.063 155.063c-8.777 8.777-23.406 8.777-32.183-2.926s-8.777-23.406-2.926-32.183l155.063-155.063-155.063-155.063c-5.851-5.851-5.851-20.48 2.926-29.257zM0 896v-1024h1024v1024h-1024zM994.743-98.743h-965.486v965.486h965.486v-965.486z" />
<glyph unicode="&#xe92d;" glyph-name="chevron_menu" d="M256 889.173c6.827 6.827 17.067 6.827 23.893 0l508.587-484.693c13.653-10.24 13.653-30.72 0-40.96l-508.587-484.693c-10.24-10.24-17.067-10.24-23.893 0l-20.48 20.48c-6.827 10.24-6.827 17.067 0 27.307l481.28 457.387-481.28 460.8c-10.24 6.827-10.24 13.653 0 23.893l20.48 20.48z" />
<glyph unicode="&#xe92e;" glyph-name="siparislerim_menu" d="M952.32 612.693v0c-3.413 3.413-3.413 6.827-3.413 6.827l-143.36 245.76c-10.24 20.48-27.307 30.72-47.787 30.72h-491.52c-20.48 0-37.547-10.24-47.787-27.307l-146.773-252.587c0-3.413-3.413-3.413-3.413-6.827 0-6.827-3.413-10.24-3.413-17.067v-648.533c0-40.96 34.133-71.68 71.68-71.68h750.933c37.547 0 71.68 30.72 71.68 71.68v648.533c0 0 0 3.413 0 3.413 0 6.827-3.413 13.653-6.827 17.067zM542.72 834.56h211.627l112.64-194.56h-324.267v194.56zM269.653 834.56h215.040v-194.56h-327.68l112.64 194.56zM897.707-56.32c0-6.827-3.413-10.24-10.24-10.24h-750.933c-6.827 0-10.24 3.413-10.24 10.24v638.293h771.413v-638.293zM648.533 356.693c-10.24 10.24-30.72 10.24-40.96 0l-133.12-133.12-51.2 51.2c-10.24 10.24-30.72 10.24-40.96 0s-10.24-30.72 0-40.96l71.68-71.68c6.827-6.827 13.653-10.24 20.48-10.24s17.067 3.413 20.48 10.24l153.6 153.6c10.24 10.24 10.24 27.307 0 40.96z" />
<glyph unicode="&#xe92f;" glyph-name="double-chevron-left" d="M393.6 384l176 185.6c3.2 3.2 3.2 12.8 0 16l-32 35.2c-3.2 3.2-12.8 3.2-16 0l-217.6-224c-3.2-3.2-3.2-6.4-3.2-9.6s0-6.4 3.2-9.6l217.6-224c3.2-3.2 12.8-3.2 16 0l32 35.2c3.2 3.2 3.2 12.8 0 16 3.2-6.4-176 179.2-176 179.2zM540.8 384l176 185.6c3.2 3.2 3.2 12.8 0 16l-32 35.2c-3.2 3.2-12.8 3.2-16 0l-217.6-224c-3.2-6.4-3.2-9.6-3.2-12.8s0-6.4 3.2-9.6l217.6-224c3.2-3.2 12.8-3.2 16 0l32 35.2c3.2 3.2 3.2 12.8 0 16 3.2-3.2-176 182.4-176 182.4z" />
<glyph unicode="&#xe930;" glyph-name="double-chevron-right" d="M630.4 384l-176 185.6c-3.2 3.2-3.2 12.8 0 16l32 35.2c3.2 3.2 12.8 3.2 16 0l217.6-224c3.2-3.2 3.2-6.4 3.2-9.6s0-6.4-3.2-9.6l-217.6-224c-3.2-3.2-12.8-3.2-16 0l-32 35.2c-3.2 3.2-3.2 12.8 0 16-3.2-6.4 176 179.2 176 179.2zM483.2 384l-176 185.6c-3.2 3.2-3.2 12.8 0 16l32 35.2c3.2 3.2 12.8 3.2 16 0l217.6-224c3.2-6.4 3.2-9.6 3.2-12.8s0-6.4-3.2-9.6l-217.6-224c-3.2-3.2-12.8-3.2-16 0l-32 35.2c-3.2 3.2-3.2 12.8 0 16-3.2-3.2 176 182.4 176 182.4z" />
<glyph unicode="&#xe931;" glyph-name="envelope" d="M898.993 773.641h-773.774c-69.072 0-125.219-56.147-125.219-125.219v-528.844c0-69.072 56.147-125.219 125.219-125.219h773.562c69.072 0 125.219 56.147 125.219 125.219v528.632c0.212 69.072-55.935 125.431-125.007 125.431zM967.005 119.578c0-37.502-30.51-68.012-68.012-68.012h-773.774c-37.502 0-68.012 30.51-68.012 68.012v528.632c0 37.502 30.51 68.012 68.012 68.012h773.562c37.502 0 68.012-30.51 68.012-68.012v-528.632h0.212zM645.8 390.568l250.438 224.589c11.653 10.594 12.713 28.603 2.119 40.468-10.594 11.653-28.603 12.713-40.468 2.119l-345.359-309.976-67.377 60.173c-0.212 0.212-0.424 0.424-0.424 0.636-1.483 1.483-2.966 2.754-4.661 4.026l-274.168 245.353c-11.865 10.594-29.875 9.534-40.468-2.331s-9.534-29.875 2.331-40.468l253.405-226.496-252.345-236.242c-11.441-10.806-12.077-28.815-1.271-40.468 5.721-5.933 13.348-9.111 20.976-9.111 6.992 0 13.984 2.543 19.493 7.628l256.159 239.633 69.496-62.080c5.509-4.873 12.289-7.204 19.069-7.204s13.772 2.543 19.069 7.416l71.402 63.987 254.676-241.963c5.509-5.297 12.713-7.839 19.705-7.839 7.628 0 15.043 2.966 20.764 8.899 10.806 11.441 10.382 29.663-1.059 40.468l-251.498 238.785z" />
<glyph unicode="&#xe932;" glyph-name="printer" d="M847.32 686.107h-26.316v58.575c0 83.406-67.913 151.319-151.319 151.319h-317.705c-83.406 0-151.319-67.913-151.319-151.319v-58.575h-23.982c-83.406 0-151.319-67.913-151.319-151.319v-244.062c0-83.406 67.913-151.319 151.319-151.319h23.77v-191.854c0-41.597 33.956-75.553 75.553-75.553h469.236c41.597 0 75.553 33.956 75.553 75.553v191.854h26.528c83.406 0 151.319 67.913 151.319 151.319v244.062c0 83.406-67.913 151.319-151.319 151.319zM257.751 744.681c0 51.784 42.233 94.017 94.017 94.017h317.493c51.784 0 94.017-42.233 94.017-94.017v-58.575h-505.527v58.575zM763.49-52.871c0-9.975-8.277-18.252-18.252-18.252h-469.236c-9.975 0-18.252 8.277-18.252 18.252v316.432h505.739v-316.432zM941.337 290.514c0-51.784-42.233-94.017-94.017-94.017h-26.316v67.064h37.777c15.917 0 28.651 12.734 28.651 28.651s-12.734 28.651-28.651 28.651h-700.352c-15.917 0-28.651-12.734-28.651-28.651s12.734-28.651 28.651-28.651h42.233v-67.064h-23.982c-51.784 0-94.017 42.233-94.017 94.017v244.062c0 51.784 42.233 94.017 94.017 94.017h670.64c51.784 0 94.017-42.233 94.017-94.017v-244.062zM327.149 122.641h364.82c15.917 0 28.651 12.734 28.651 28.651s-12.734 28.651-28.651 28.651h-364.82c-15.917 0-28.651-12.734-28.651-28.651s12.946-28.651 28.651-28.651zM694.304 62.793h-365.032c-15.917 0-28.651-12.734-28.651-28.651s12.734-28.651 28.651-28.651h364.82c15.917 0 28.651 12.734 28.651 28.651s-12.734 28.651-28.439 28.651zM846.684 573.626h-58.15c-15.917 0-28.651-12.734-28.651-28.651s12.734-28.651 28.651-28.651h58.15c15.917 0 28.651 12.734 28.651 28.651s-12.734 28.651-28.651 28.651z" />
<glyph unicode="&#xe933;" glyph-name="share" d="M811.375 238.14c-58.897 0-111.415-28.066-145.010-71.442l-281.302 157.13c6.591 18.924 10.206 39.336 10.206 60.385 0 21.262-3.615 41.462-10.419 60.598l281.090 156.917c33.382-43.588 86.113-71.867 145.223-71.867 100.784 0 183.070 82.073 183.070 183.070s-82.073 183.070-183.070 183.070-183.070-82.073-183.070-183.070c0-21.262 3.615-41.674 10.419-60.598l-280.877-156.917c-33.382 43.801-86.113 71.867-145.223 71.867-100.784 0-183.070-82.073-183.070-183.070s82.286-183.070 183.282-183.070c59.11 0 111.841 28.279 145.435 72.080l281.090-157.13c-6.804-19.136-10.631-39.761-10.631-61.023 0-100.784 82.073-183.070 183.070-183.070s183.070 82.073 183.070 183.070-82.286 183.070-183.282 183.070zM811.375 838.379c69.316 0 125.661-56.346 125.661-125.661s-56.346-125.661-125.661-125.661-125.661 56.346-125.661 125.661 56.558 125.661 125.661 125.661zM212.625 258.551c-69.316 0-125.661 56.346-125.661 125.661s56.346 125.661 125.661 125.661 125.661-56.346 125.661-125.661-56.558-125.661-125.661-125.661zM811.375-70.379c-69.316 0-125.661 56.346-125.661 125.661s56.346 125.661 125.661 125.661 125.661-56.346 125.661-125.661c0-69.316-56.346-125.661-125.661-125.661z" />
<glyph unicode="&#xe934;" glyph-name="phone" horiz-adv-x="666" d="M594.808 896h-529.728c-35.734 0-64.802-29.070-64.802-64.804v-893.984c0-35.732 29.070-64.804 64.804-64.804h529.726c35.734 0 64.804 29.070 64.804 64.804v893.984c-0.002 35.734-29.070 64.804-64.804 64.804zM32.751 733.121h594.388v-676.938h-594.388v676.938zM65.079 863.526h529.728c17.826 0 32.331-14.503 32.331-32.331v-76.425h-594.388v76.425c0 17.828 14.503 32.331 32.329 32.331zM594.808-95.117h-529.728c-17.826 0-32.331 14.503-32.331 32.331v97.323h594.388v-97.323c0-17.828-14.503-32.331-32.329-32.331zM329.944 20.183c-29.324 0-53.179-23.857-53.179-53.181s23.857-53.179 53.179-53.179c29.321 0 53.179 23.857 53.179 53.179s-23.855 53.181-53.179 53.181zM329.944-64.527c-17.386 0-31.53 14.145-31.53 31.53s14.143 31.532 31.53 31.532 31.53-14.145 31.53-31.532c0-17.384-14.143-31.53-31.53-31.53zM256.338 792.853h147.214c5.979 0 10.825 4.847 10.825 10.825s-4.845 10.825-10.825 10.825h-147.214c-5.979 0-10.825-4.847-10.825-10.825s4.845-10.825 10.825-10.825zM217.376 792.853c2.836 0 5.629 1.147 7.642 3.161 2.013 2.035 3.182 4.806 3.182 7.664s-1.169 5.629-3.182 7.664c-2.016 2.013-4.808 3.161-7.642 3.161-2.858 0-5.631-1.147-7.664-3.161-2.013-2.013-3.161-4.806-3.161-7.664s1.147-5.629 3.161-7.664c2.013-2.013 4.806-3.161 7.664-3.161z" />
<glyph unicode="&#xe935;" glyph-name="zoom" d="M1006.264-0.502l-280.596 280.094c2.51 3.848 4.35 10.039 6.358 18.238 29.616 49.861 48.021 104.073 53.71 161.464 1.339 13.218 1.841 27.106 1.841 40.324 0 43.503-7.195 87.174-22.086 130.008-19.242 55.55-50.029 105.077-92.695 147.576-76.131 75.629-176.188 114.949-278.923 114.949-101.563 0-202.123-39.488-278.254-114.782-50.698-50.196-84.329-109.762-102.233-177.192-18.071-68.267-17.736-135.027 0-202.458s51.367-126.661 102.233-177.192c75.963-75.461 176.69-114.782 278.254-114.782 78.808 0 150.588 22.756 217.014 64.418l10.039 6.358 281.935-281.433c10.708-10.708 22.086-17.067 32.795-18.238 2.51-0.669 4.35-0.669 6.358-0.669 7.529 0.502 14.557 2.51 20.246 5.689 7.697 4.35 15.728 10.708 24.596 19.576l12.549 12.549c8.868 8.868 15.226 17.067 19.576 24.596 3.179 5.689 5.020 13.218 5.020 22.756v5.020c0 10.541-6.693 22.086-17.736 33.129zM706.761 415.289c-14.724-55.383-42.834-104.073-84.497-145.736-60.737-60.57-142.055-94.703-228.392-94.703-85.166 0-165.982 34.635-229.061 94.703-123.817 117.961-123.315 338.322 0 457.286 62.243 60.068 143.226 95.205 229.061 95.205 90.186 0 165.48-31.958 228.392-95.205 41.161-41.495 69.94-89.516 84.497-145.067 14.39-55.55 14.724-110.933 0-166.484zM432.356 664.429h-76.465v-127.498h-127.331v-76.298h127.331v-128h76.465v128h128v76.298h-128z" />
<glyph unicode="&#xe936;" glyph-name="question-basket" d="M955.349 641.005c-45.786 78.439-107.891 140.545-186.333 186.328-78.456 45.781-164.101 68.667-257.001 68.667-92.891 0-178.562-22.886-257.003-68.667-78.446-45.776-140.552-107.882-186.338-186.328-45.788-78.451-68.674-164.122-68.674-257.006 0-92.889 22.893-178.546 68.667-257.001 45.783-78.439 107.889-140.545 186.335-186.333 78.451-45.779 164.115-68.667 257.003-68.667s178.562 22.888 257.008 68.667c78.442 45.772 140.545 107.894 186.326 186.333 45.774 78.449 68.658 164.117 68.658 257.001 0.002 92.893-22.884 178.567-68.648 257.006zM597.355 63.998c0-6.216-2.013-11.332-6.008-15.325-3.979-3.995-9.095-5.994-15.311-5.994h-128.015c-6.221 0-11.334 1.999-15.334 5.994-4.002 3.995-6.001 9.109-6.001 15.325v128.015c0 6.216 1.996 11.332 6.001 15.325 4 3.988 9.114 5.985 15.334 5.985h128.015c6.216 0 11.332-1.996 15.311-5.985 3.995-3.995 6.008-9.109 6.008-15.325v-128.015zM759.683 458.004c-5.562-16.446-11.778-29.898-18.666-40.338-6.886-10.445-16.782-21.114-29.676-31.997-12.866-10.888-23.096-18.671-30.671-23.346-7.542-4.658-18.442-11.005-32.649-18.996-14.671-8.437-26.771-19.442-36.322-33.004-9.557-13.553-14.335-24.548-14.335-32.985 0-6.235-2.013-11.346-6.010-15.344-3.986-3.995-9.1-5.992-15.318-5.992h-128.008c-6.221 0-11.334 1.996-15.334 5.992-4.005 3.998-5.996 9.109-5.996 15.344v24.002c0 29.777 11.659 57.678 34.996 83.67 23.337 26.003 49.004 45.225 77.008 57.671 21.319 9.775 36.436 19.778 45.323 29.998 8.901 10.221 13.345 23.79 13.345 40.67 0 14.671-8.341 27.78-25.011 39.343-16.67 11.552-35.656 17.328-56.996 17.328-23.117 0-42.223-5.336-57.337-16.007-14.671-10.66-33.777-31.108-57.335-61.326-4-5.338-9.557-8.012-16.67-8.012-5.333 0-9.557 1.331-12.665 3.991l-87.994 66.671c-10.221 8.002-11.998 17.331-5.338 28 56.896 94.668 139.338 142.002 247.334 142.002 38.676 0 76.459-9.114 113.346-27.339 36.885-18.216 67.668-43.997 92.342-77.335 24.644-33.326 36.999-69.554 36.999-108.667-0.033-19.554-2.821-37.545-8.36-53.996z" />
<glyph unicode="&#xe937;" glyph-name="yeni" horiz-adv-x="1312" d="M352.704-99.552c39.808-39.808 102.4-39.808 142.208 0l489.248 489.248c11.392 11.392 22.752 28.448 34.144 51.2 51.2-11.392 96.704-22.752 136.544-22.752 102.4 0 136.544 45.504 147.904 73.952s17.056 85.344-51.2 159.296v0c-45.504 45.504-108.096 85.344-187.744 119.456-11.392 5.696-28.448 11.392-39.808 17.056v0c0 56.896-51.2 108.096-108.096 108.096h-295.808c-39.808 0-73.952-17.056-102.4-39.808l-489.248-489.248c-39.808-39.808-39.808-102.4 0-142.208l324.256-324.256zM728.192 719.648c34.144 34.144 85.344 34.144 119.456 0 17.056-17.056 28.448-45.504 22.752-68.256 34.144-22.752 68.256-45.504 113.792-62.592 17.056-5.696 28.448-11.392 39.808-17.056v119.456c0 0 5.696 0 5.696-5.696 62.592-28.448 119.456-62.592 159.296-96.704v0c34.144-34.144 39.808-56.896 34.144-68.256-11.392-22.752-108.096-39.808-256 22.752-39.808 17.056-79.648 39.808-119.456 62.592l-5.696-5.696c-34.144-34.144-85.344-34.144-119.456 0 0 0 0 0 0 0-28.448 34.144-28.448 91.008 5.696 119.456z" />
<glyph unicode="&#xe938;" glyph-name="problem" d="M126.594 769.159c81.633 81.793 190.164 126.841 305.617 126.841 115.445 0 223.984-45.049 305.609-126.841 81.641-81.793 126.594-190.536 126.594-306.215 0-88.352-26.258-172.642-75.023-243.992l211.258-210.583c15.055-15.084 23.352-35.147 23.352-56.485s-8.297-41.401-23.352-56.485c-15.555-15.585-35.977-23.366-56.398-23.366-20.398 0-40.789 7.773-56.297 23.311l-211.141 210.466c-71.437-49.339-155.977-75.914-244.609-75.914-115.445 0-223.977 45.041-305.617 126.841-81.633 81.793-126.586 190.536-126.586 306.207s44.961 224.423 126.594 306.215zM930.313-62.098c7.695-7.71 20.219-7.71 27.914 0 3.727 3.734 5.781 8.697 5.781 13.98s-2.055 10.247-5.727 13.926l-206.375 205.722c-4.563-5.025-9.258-9.965-14.078-14.795-4.516-4.524-9.117-8.916-13.789-13.205l206.273-205.628zM169.016 199.241c145.125-145.409 381.258-145.417 526.391 0 145.125 145.409 145.125 382.004 0 527.413-70.305 70.442-163.773 109.237-263.195 109.237s-192.898-38.795-263.195-109.237c-145.125-145.409-145.125-382.004 0-527.413zM199.32 696.29c62.203 62.333 144.914 96.658 232.891 96.658 87.969 0 170.68-34.325 232.891-96.658 128.414-128.665 128.414-338.027 0-466.693-62.211-62.325-144.922-96.65-232.891-96.65-87.977 0-170.687 34.325-232.891 96.65-62.211 62.333-96.469 145.205-96.469 233.346 0 88.149 34.258 171.022 96.469 233.346zM241.734 272.102c105.031-105.229 275.914-105.229 380.937 0 105.031 105.237 105.031 276.454 0 381.683-52.508 52.618-121.484 78.928-190.461 78.928-68.984 0-137.961-26.309-190.469-78.928-50.883-50.975-78.898-118.748-78.898-190.841 0-72.086 28.016-139.867 78.891-190.841zM432.211 593.84c16.563 0 29.992-13.456 29.992-30.051v-118.027c0-16.595-13.43-30.051-29.992-30.051-16.57 0-30 13.456-30 30.051v118.027c0 16.595 13.43 30.051 30 30.051zM402.797 359.953c0.203 0.963 0.437 1.926 0.719 2.865 0.281 0.947 0.617 1.863 1 2.771 0.359 0.9 0.781 1.8 1.242 2.661s0.977 1.706 1.516 2.528c0.539 0.814 1.125 1.62 1.742 2.364 0.617 0.783 1.281 1.503 1.977 2.2 0.703 0.705 1.422 1.362 2.203 1.988 0.742 0.618 1.539 1.198 2.359 1.746 0.82 0.54 1.664 1.057 2.523 1.519s1.758 0.885 2.656 1.245c0.898 0.376 1.844 0.72 2.758 1.002 0.945 0.282 1.906 0.517 2.859 0.72 0.961 0.204 1.945 0.337 2.906 0.438 1.953 0.204 3.938 0.204 5.898 0 0.977-0.102 1.961-0.235 2.914-0.438 0.961-0.204 1.922-0.446 2.844-0.72 0.937-0.282 1.859-0.626 2.781-1.002 0.898-0.36 1.781-0.783 2.641-1.245s1.719-0.978 2.516-1.519c0.82-0.548 1.617-1.127 2.383-1.746 0.758-0.626 1.5-1.284 2.18-1.988 0.695-0.697 1.359-1.417 1.977-2.2 0.625-0.744 1.219-1.55 1.758-2.364 0.547-0.822 1.047-1.667 1.5-2.528 0.461-0.861 0.883-1.761 1.266-2.661 0.359-0.908 0.695-1.824 0.977-2.771 0.305-0.939 0.539-1.902 0.719-2.865 0.203-0.963 0.344-1.941 0.445-2.904 0.094-0.978 0.156-1.98 0.156-2.967 0-0.978-0.063-1.957-0.156-2.943-0.102-0.986-0.242-1.965-0.445-2.928-0.18-0.955-0.414-1.926-0.719-2.841-0.281-0.947-0.617-1.863-0.977-2.771-0.383-0.916-0.805-1.8-1.266-2.661-0.453-0.861-0.953-1.722-1.5-2.521-0.539-0.822-1.133-1.628-1.758-2.387-0.617-0.759-1.281-1.503-1.977-2.184-0.68-0.705-1.422-1.362-2.18-1.988-0.766-0.618-1.563-1.213-2.383-1.761-0.797-0.54-1.656-1.041-2.516-1.503-0.859-0.454-1.766-0.877-2.664-1.26-0.898-0.376-1.82-0.704-2.758-0.978-0.938-0.305-1.883-0.548-2.844-0.72-0.953-0.204-1.937-0.344-2.914-0.446-0.984-0.102-1.961-0.157-2.945-0.157-0.977 0-1.977 0.055-2.953 0.157-0.961 0.102-1.945 0.243-2.906 0.446-0.953 0.18-1.914 0.415-2.859 0.72-0.914 0.282-1.859 0.603-2.758 0.978-0.898 0.384-1.797 0.798-2.656 1.26s-1.703 0.963-2.523 1.503c-0.82 0.548-1.617 1.143-2.359 1.761-0.781 0.626-1.5 1.292-2.203 1.988-0.695 0.681-1.359 1.425-1.977 2.184s-1.203 1.566-1.742 2.387c-0.539 0.798-1.055 1.659-1.516 2.521s-0.883 1.746-1.242 2.661c-0.383 0.908-0.719 1.824-1 2.771-0.281 0.916-0.516 1.879-0.719 2.841s-0.344 1.949-0.437 2.928c-0.102 0.978-0.141 1.965-0.141 2.943 0 0.986 0.039 1.988 0.141 2.967 0.094 0.963 0.234 1.941 0.437 2.904z" />
<glyph unicode="&#xe939;" glyph-name="hediye" horiz-adv-x="1472" d="M266.496 778.944c-41.248 41.248-108.16 41.248-149.44 0s-41.248-108.192 0-149.44c31.456-31.424 219.712-95.552 222.656-69.344-4.544 62.4-27.008 172.608-73.216 218.816zM272.64 332.128c-16.992-16.544-44.192-16.16-60.704 0.864s-16.16 44.192 0.832 60.704l83.168 80.864c-46.272 3.584-96.992 17.44-140.896 35.168v-551.584h189.44v443.84l-71.808-69.856zM507.36 451.904l66.944-70.24c16.352-17.184 15.68-44.384-1.504-60.704s-44.384-15.68-60.736 1.504l-81.504 85.472v-449.792h953.12v493.76h-876.352zM705.312 839.808c27.808-27.808 45.312-62.080 52.448-97.984h628.32c46.144 0 83.744-37.6 83.744-83.744v-702.368c0-46.144-37.6-83.744-83.744-83.744h-1233.44c-46.144 0-83.744 37.6-83.744 83.744v601.536c-45.088 36.16-68.896 93.056-68.896 146.944 0 105.92 85.888 191.776 191.776 191.776 49.088 0 98.176-18.72 135.616-56.192 19.648-19.616 38.048-50.592 53.344-85.664 15.296 35.072 33.728 66.048 53.376 85.664 74.88 74.912 196.288 74.912 271.2 0zM755.296 655.712c-8.32-31.904-24.992-62.112-49.984-87.136-10.656-10.656-24.672-20.96-40.832-30.592h719.232v117.696h-628.416zM675.36 704.224c0 58.368-47.296 105.664-105.664 105.664-27.040 0-54.080-10.304-74.72-30.944-45.28-45.28-68.512-154.208-73.216-218.816 2.816-25.408 189.984 36.704 222.624 69.344 20.64 20.64 30.944 47.68 30.944 74.72zM947.36 44.256c-23.776 0-43.072 19.296-43.072 43.072s19.264 43.072 43.072 43.072h206.688c23.776 0 43.072-19.264 43.072-43.072s-19.296-43.072-43.072-43.072h-206.688zM947.36 216.512c-23.776 0-43.072 19.264-43.072 43.072s19.264 43.072 43.072 43.072h307.168c23.776 0 43.072-19.296 43.072-43.072s-19.264-43.072-43.072-43.072h-307.168z" />
<glyph unicode="&#xe93a;" glyph-name="arrow_up" d="M861.472 561.184c12.992-12.992 12.992-35.744 0-52-12.992-12.992-39.008-12.992-52 0l-260.064 260.064v-864.704c0-19.52-16.256-35.744-35.744-35.744s-35.744 16.256-35.744 35.744v867.968l-260.064-260.064c-12.992-12.992-35.744-12.992-52 0-12.992 12.992-12.992 35.744 0 52l325.088 325.088c12.992 12.992 35.744 12.992 52 0l318.592-328.32z" />
<glyph unicode="&#xe93b;" glyph-name="arrow_down" d="M861.472 206.816c12.992 12.992 12.992 35.744 0 52-12.992 12.992-39.008 12.992-52 0l-260.064-260.064v861.472c0 19.52-16.256 35.744-35.744 35.744s-35.744-16.256-35.744-35.744v-864.704l-260.064 260.064c-12.992 12.992-35.744 12.992-52 0-12.992-12.992-12.992-35.744 0-52l325.088-325.088c12.992-12.992 35.744-12.992 52 0l318.592 328.32z" />
<glyph unicode="&#xe93c;" glyph-name="truck" horiz-adv-x="1138" d="M659.911 850.489c17.067 0 28.444-5.689 34.133-17.067 11.378-11.378 11.378-22.756 11.378-34.133v-91.022h147.911c17.067 0 28.444-5.689 39.822-22.756l199.111-267.378c5.689-5.689 11.378-17.067 11.378-28.444v-329.956c0-28.444-22.756-51.2-51.2-51.2h-79.644c-5.689-34.133-17.067-56.889-39.822-79.644-28.444-28.444-62.578-45.511-102.4-45.511s-73.956 17.067-102.4 45.511c-22.756 22.756-34.133 51.2-39.822 79.644h-136.533c-5.689-34.133-17.067-56.889-39.822-79.644-28.444-28.444-62.578-45.511-102.4-45.511s-73.956 17.067-102.4 45.511c-22.756 22.756-34.133 51.2-39.822 79.644h-79.644c-28.444 0-51.2 22.756-51.2 51.2v176.356h-79.644c-28.444 0-51.2 22.756-51.2 51.2v512c0 28.444 22.756 51.2 51.2 51.2h603.022zM654.222 799.289h-597.333v-500.622h597.333v500.622zM711.111 657.067v-364.089c0-17.067-5.689-28.444-11.378-34.133-11.378-11.378-22.756-17.067-34.133-17.067h-477.867v-170.667h73.956c11.378 28.444 22.756 56.889 45.511 73.956 28.444 28.444 62.578 39.822 102.4 39.822s73.956-11.378 102.4-39.822c22.756-17.067 34.133-45.511 39.822-73.956h136.533c5.689 28.444 22.756 51.2 39.822 73.956 56.889 51.2 142.222 51.2 204.8 0 22.756-22.756 34.133-45.511 39.822-73.956h73.956v284.444h-187.733c-28.444 0-51.2 22.756-51.2 51.2v250.311h-96.711zM472.178-25.6c39.822 34.133 34.133 96.711 0 130.844s-91.022 34.133-125.156 0c-39.822-34.133-39.822-96.711 0-130.844 28.444-34.133 91.022-34.133 125.156 0zM768 105.244c-39.822-34.133-39.822-96.711 0-130.844 34.133-34.133 96.711-34.133 130.844 0s34.133 96.711 0 130.844c-39.822 34.133-96.711 34.133-130.844 0zM1035.378 412.444l-170.667 233.244v-233.244h170.667z" />
<glyph unicode="&#xe93d;" glyph-name="receipt" d="M955.733 890.88h-887.467c-37.547 0-68.267-30.72-68.267-68.267 0-32.427 22.187-58.027 51.2-66.56v-829.44l51.2 51.2 102.4-102.4 102.4 102.4 102.4-102.4 102.4 102.4 102.4-102.4 102.4 102.4 102.4-102.4 102.4 102.4 51.2-51.2v829.44c29.013 6.827 51.2 34.133 51.2 66.56 0 37.547-30.72 68.267-68.267 68.267zM938.667 754.347v-744.107l-17.067 17.067-102.4-102.4-102.4 102.4-102.4-102.4-102.4 102.4-102.4-102.4-102.4 102.4-102.4-102.4-102.4 102.4-17.067-17.067v795.307h853.333v-51.2zM972.8 793.6v46.080h-921.6v-46.080c-10.24 5.12-17.067 17.067-17.067 29.013 0 18.773 15.36 34.133 34.133 34.133h887.467c18.773 0 34.133-15.36 34.133-34.133 0-11.947-6.827-23.893-17.067-29.013zM750.933 208.213h-256c-10.24 0-17.067-6.827-17.067-17.067s6.827-17.067 17.067-17.067h256c10.24 0 17.067 6.827 17.067 17.067s-6.827 17.067-17.067 17.067zM824.32 203.093c-3.413-3.413-5.12-6.827-5.12-11.947s1.707-8.533 5.12-11.947c3.413-3.413 8.533-5.12 11.947-5.12s8.533 1.707 11.947 5.12c3.413 3.413 5.12 8.533 5.12 11.947 0 5.12-1.707 8.533-5.12 11.947-6.827 6.827-17.067 6.827-23.893 0zM836.267 447.147h-256c-10.24 0-17.067-6.827-17.067-17.067s6.827-17.067 17.067-17.067h256c10.24 0 17.067 6.827 17.067 17.067s-6.827 17.067-17.067 17.067zM836.267 327.68h-170.667c-10.24 0-17.067-6.827-17.067-17.067s6.827-17.067 17.067-17.067h170.667c10.24 0 17.067 6.827 17.067 17.067s-6.827 17.067-17.067 17.067zM494.933 293.547h34.133c10.24 0 17.067 6.827 17.067 17.067s-6.827 17.067-17.067 17.067h-34.133c-10.24 0-17.067-6.827-17.067-17.067 0-8.533 6.827-17.067 17.067-17.067zM768 549.547c0 10.24-6.827 17.067-17.067 17.067h-256c-10.24 0-17.067-6.827-17.067-17.067s6.827-17.067 17.067-17.067h256c10.24 0 17.067 8.533 17.067 17.067zM824.32 561.493c-3.413-3.413-5.12-6.827-5.12-11.947s1.707-8.533 5.12-11.947c3.413-3.413 8.533-5.12 11.947-5.12 5.12 0 8.533 1.707 11.947 5.12s5.12 8.533 5.12 11.947c0 5.12-1.707 8.533-5.12 11.947-6.827 6.827-17.067 6.827-23.893 0zM500.053 442.027c-3.413-3.413-5.12-6.827-5.12-11.947s1.707-8.533 5.12-11.947c3.413-3.413 8.533-5.12 11.947-5.12 5.12 0 8.533 1.707 11.947 5.12s5.12 6.827 5.12 11.947c0 5.12-1.707 8.533-5.12 11.947-6.827 6.827-17.067 6.827-23.893 0zM609.28 298.667c3.413 3.413 5.12 6.827 5.12 11.947s-1.707 8.533-5.12 11.947c-6.827 6.827-17.067 6.827-23.893 0-3.413-3.413-5.12-6.827-5.12-11.947s1.707-8.533 5.12-11.947c3.413-3.413 8.533-5.12 11.947-5.12s8.533 1.707 11.947 5.12zM725.333 703.147c0-23.564-19.103-42.667-42.667-42.667s-42.667 19.103-42.667 42.667c0 23.564 19.103 42.667 42.667 42.667s42.667-19.103 42.667-42.667zM657.067 703.147c0-23.564-19.103-42.667-42.667-42.667s-42.667 19.103-42.667 42.667c0 23.564 19.103 42.667 42.667 42.667s42.667-19.103 42.667-42.667zM793.6 703.147c0-23.564-19.103-42.667-42.667-42.667s-42.667 19.103-42.667 42.667c0 23.564 19.103 42.667 42.667 42.667s42.667-19.103 42.667-42.667zM588.8 703.147c0-23.564-19.103-42.667-42.667-42.667s-42.667 19.103-42.667 42.667c0 23.564 19.103 42.667 42.667 42.667s42.667-19.103 42.667-42.667zM861.867 703.147c0-23.564-19.103-42.667-42.667-42.667s-42.667 19.103-42.667 42.667c0 23.564 19.103 42.667 42.667 42.667s42.667-19.103 42.667-42.667zM384 703.147c0-23.564-19.103-42.667-42.667-42.667s-42.667 19.103-42.667 42.667c0 23.564 19.103 42.667 42.667 42.667s42.667-19.103 42.667-42.667zM452.267 703.147c0-23.564-19.103-42.667-42.667-42.667s-42.667 19.103-42.667 42.667c0 23.564 19.103 42.667 42.667 42.667s42.667-19.103 42.667-42.667zM520.533 703.147c0-23.564-19.103-42.667-42.667-42.667s-42.667 19.103-42.667 42.667c0 23.564 19.103 42.667 42.667 42.667s42.667-19.103 42.667-42.667zM930.133 703.147c0-23.564-19.103-42.667-42.667-42.667s-42.667 19.103-42.667 42.667c0 23.564 19.103 42.667 42.667 42.667s42.667-19.103 42.667-42.667zM315.733 703.147c0-23.564-19.103-42.667-42.667-42.667s-42.667 19.103-42.667 42.667c0 23.564 19.103 42.667 42.667 42.667s42.667-19.103 42.667-42.667zM247.467 703.147c0-23.564-19.103-42.667-42.667-42.667s-42.667 19.103-42.667 42.667c0 23.564 19.103 42.667 42.667 42.667s42.667-19.103 42.667-42.667zM179.2 703.147c0-23.564-19.103-42.667-42.667-42.667s-42.667 19.103-42.667 42.667c0 23.564 19.103 42.667 42.667 42.667s42.667-19.103 42.667-42.667zM194.56 293.547c6.827 0 13.653-1.707 20.48-1.707 93.867 0 131.413 52.907 131.413 126.293h-32.427c-1.707-68.267-40.96-95.573-85.333-97.28v105.813l71.68 25.6v22.187l-71.68-25.6v20.48l71.68 25.6v22.187l-71.68-25.6v68.267h-34.133v-80.213l-35.84-13.653v-22.187l35.84 13.653v-20.48l-35.84-13.653v-22.187l35.84 13.653v-121.173z" />
<glyph unicode="&#xe93e;" glyph-name="agreement" horiz-adv-x="768" d="M722.558 896h-701.116c-11.264 0-20.398-9.132-20.398-20.398v-983.204c0-11.266 9.134-20.398 20.398-20.398h533.124c5.41 0 10.596 2.15 14.424 5.974l167.994 167.996c3.824 3.824 5.974 9.012 5.974 14.424v815.208c0 11.266-9.134 20.398-20.4 20.398zM574.926-58.392l-0.088 98.514 98.514-0.090-98.426-98.424zM702.162 80.802l-147.724 0.134c-0.006 0-0.012 0-0.018 0-5.41 0-10.598-2.15-14.424-5.974-3.828-3.83-5.978-9.026-5.974-14.442l0.132-147.724h-492.314v942.408h660.322v-774.402zM210.046 160.048c-51.294 0-93.026-41.73-93.026-93.026 0-51.298 41.734-93.028 93.026-93.028 51.296 0 93.028 41.73 93.028 93.028 0.004 51.294-41.73 93.026-93.028 93.026zM210.046 14.788c-28.8 0-52.23 23.432-52.23 52.232s23.43 52.23 52.23 52.23c28.8 0 52.232-23.43 52.232-52.23s-23.428-52.232-52.232-52.232zM476.032 84.144h-112.192c-11.264 0-20.398-9.132-20.398-20.398s9.134-20.398 20.398-20.398h112.192c11.264 0 20.398 9.132 20.398 20.398s-9.134 20.398-20.398 20.398zM202.694 773.61h-59.156c-11.264 0-20.398-9.132-20.398-20.398s9.134-20.398 20.398-20.398h59.156c11.264 0 20.398 9.132 20.398 20.398s-9.134 20.398-20.398 20.398zM608.622 773.61h-177.466c-11.264 0-20.398-9.132-20.398-20.398s9.134-20.398 20.398-20.398h177.466c11.264 0 20.398 9.132 20.398 20.398s-9.134 20.398-20.398 20.398zM608.622 685.896h-301.896c-11.264 0-20.398-9.132-20.398-20.398s9.134-20.398 20.398-20.398h301.896c11.264 0 20.398 9.132 20.398 20.398s-9.134 20.398-20.398 20.398zM609.642 524.75h-475.284c-11.264 0-20.398-9.132-20.398-20.398s9.134-20.398 20.398-20.398h475.282c11.264 0 20.398 9.132 20.398 20.398s-9.132 20.398-20.396 20.398zM609.642 455.394h-475.284c-11.264 0-20.398-9.132-20.398-20.398s9.134-20.398 20.398-20.398h475.282c11.264 0 20.398 9.132 20.398 20.398s-9.132 20.398-20.396 20.398zM609.642 379.92h-475.284c-11.264 0-20.398-9.132-20.398-20.398s9.134-20.398 20.398-20.398h475.282c11.264 0 20.398 9.132 20.398 20.398s-9.132 20.398-20.396 20.398zM609.642 310.566h-11.22c-11.264 0-20.398-9.132-20.398-20.398s9.134-20.398 20.398-20.398h11.22c11.264 0 20.398 9.132 20.398 20.398s-9.134 20.398-20.398 20.398zM527.028 310.566h-392.67c-11.264 0-20.398-9.132-20.398-20.398s9.134-20.398 20.398-20.398h392.67c11.264 0 20.398 9.132 20.398 20.398s-9.134 20.398-20.398 20.398z" />
<glyph unicode="&#xe93f;" glyph-name="kiralik" horiz-adv-x="1052" d="M940.783 469.333h-27.95l-97.642 81.375c-3.075 2.558-6.942 3.958-10.942 3.958h-273.067c-9.425 0-17.067-7.642-17.067-17.067v-17.067h-187.733c-9.425 0-17.067-7.642-17.067-17.067v-153.6c0-9.425 7.642-17.067 17.067-17.067h27.067l34.133-34.133-22.067-22.067c-6.658-6.667-6.658-17.467 0-24.133l204.8-204.8c6.667-6.658 17.467-6.658 24.133 0l39.133 39.133 5-5c6.667-6.658 17.467-6.658 24.133 0l182.733 182.733h95.333c9.425 0 17.067 7.642 17.067 17.067v170.667c0 9.425-7.642 17.067-17.067 17.067zM423.783 286.6l5 5 27.067-27.067-27.067-27.067-27.067 27.067 22.067 22.067zM479.983 240.4l27.067-27.067-27.067-27.067-27.067 27.067 27.067 27.067zM531.183 189.2l27.067-27.067-27.067-27.067-27.067 27.067 27.067 27.067zM582.383 83.867l-27.067 27.067 27.067 27.067 27.067-27.067-27.067-27.067zM770.117 237.467l-73.267 73.267c-6.7 6.467-17.342 6.375-23.925-0.208s-6.675-17.225-0.208-23.925l73.267-73.267-27.067-27.067-73.267 73.267c-6.7 6.467-17.342 6.375-23.925-0.208s-6.675-17.225-0.208-23.925l73.267-73.267-44.133-44.133-209.8 209.8c-6.667 6.658-17.467 6.658-24.133 0l-5-5-39.133 39.133c-3.2 3.2-7.542 5-12.067 5h-17.067v119.467h170.667v-17.067c0-9.425 7.642-17.067 17.067-17.067h112.4l170.667-170.667-44.133-44.133zM923.717 298.667h-78.267l-182.733 182.733c-3.2 3.2-7.542 5-12.067 5h-102.4v34.133h249.825l97.633-81.375c3.075-2.558 6.942-3.958 10.942-3.958h17.067v-136.533zM462.917 622.933c-9.425 0-17.067-7.642-17.067-17.067s7.642-17.067 17.067-17.067h307.2c9.425 0 17.067 7.642 17.067 17.067s-7.642 17.067-17.067 17.067h-34.133v102.4h34.133c7.525 0 14.158 4.917 16.342 12.117 2.175 7.2-0.608 14.975-6.867 19.15l-153.6 102.4c-5.733 3.825-13.208 3.825-18.95 0l-153.6-102.4c-6.25-4.175-9.042-11.95-6.858-19.15 2.175-7.2 8.817-12.117 16.333-12.117h34.133v-102.4h-34.133zM599.45 622.933v34.133h34.133v-34.133h-34.133zM616.517 824.317l97.283-64.85h-194.558l97.275 64.85zM531.183 725.333h170.667v-102.4h-34.133v51.2c0 9.425-7.642 17.067-17.067 17.067h-68.267c-9.425 0-17.067-7.642-17.067-17.067v-51.2h-34.133v102.4zM1025.025 747.875c-0.183 0.55-0.325 1.058-0.567 1.592-0.825 1.858-1.983 3.55-3.408 5l-136.533 136.533c-1.442 1.433-3.125 2.592-4.983 3.417-0.55 0.25-1.075 0.392-1.708 0.592-1.4 0.475-2.858 0.758-4.333 0.858-0.242-0.058-0.583 0.133-0.975 0.133h-614.4c-9.425 0-17.067-7.642-17.067-17.067v-38.333l-226.542-64.733c-4.475-1.275-8.233-4.325-10.4-8.442-2.175-4.117-2.575-8.933-1.1-13.35l238.042-714.158v-150.85c0-9.425 7.642-17.067 17.067-17.067h750.933c9.425 0 17.067 7.642 17.067 17.067v853.333c-0.225 1.85-0.592 3.683-1.092 5.475zM967.85 759.467h-78.267v78.267l78.267-78.267zM41.017 747.95l200.033 57.15v-657.267l-200.033 600.117zM275.183-93.867v955.733h580.267v-119.467c0-9.425 7.642-17.067 17.067-17.067h119.467v-819.2h-716.8zM940.783 76.8h-170.667c-9.425 0-17.067-7.642-17.067-17.067s7.642-17.067 17.067-17.067h170.667c9.425 0 17.067 7.642 17.067 17.067s-7.642 17.067-17.067 17.067zM940.783 8.533h-170.667c-9.425 0-17.067-7.642-17.067-17.067s7.642-17.067 17.067-17.067h170.667c9.425 0 17.067 7.642 17.067 17.067s-7.642 17.067-17.067 17.067z" />
<glyph unicode="&#xe940;" glyph-name="tedarik" horiz-adv-x="996" d="M950.565 421.312c0 191.15-115.812 363.49-293.434 436.64-177.614 73.15-382.062 32.721-518.013-102.453-163.118-162.324-185.44-417.684-52.91-605.547 132.522-187.862 381.598-253.96 590.646-156.729l-4.047-95.466c0-0.235-0.008-0.47-0.008-0.704-0.024-8.964 5.196-17.117 13.364-20.907 8.152-3.749 17.761-2.372 24.504 3.522l89.792 76.923 89.825-76.947c6.735-5.879 16.336-7.255 24.472-3.498 8.168 3.789 13.388 11.951 13.364 20.915 0 0.227 0 0.462-0.008 0.696l-8.608 203.142c74.604 63.158 85.997 173.506 25.864 250.421 3.453 23.166 5.188 46.567 5.196 69.992zM475.234-18.138c-243.708 0-441.975 197.126-441.975 439.449 0 242.316 198.267 439.449 441.975 439.449s441.975-197.134 441.975-439.449c0-13.247-0.627-26.51-1.8-39.684-32.485 26.146-73.025 40.397-114.818 40.356-16.963-0.032-33.845-2.381-50.165-6.972v132.907c-0.057 7.215-4.772 13.587-11.694 15.781l-241.624 77.466c-3.339 1.061-6.93 1.061-10.269 0l-241.721-77.466c-6.93-2.194-11.654-8.559-11.719-15.781v-327.838c0.057-7.223 4.772-13.587 11.694-15.781l241.624-77.466c3.347-1.069 6.947-1.069 10.285 0l133.964 42.947c11.141-26.583 28.422-50.186 50.45-68.891l-2.956-69.887c-62.821-32.283-132.506-49.142-203.226-49.142zM617.13 239.571c-0.024-12.81 1.311-25.587 3.982-38.121l-120.861-38.737v292.996l216.818 69.441v-123.255c-61.632-30.826-100.363-93.733-99.94-162.324zM266.755 525.142l200.14-64.089v-292.988l-200.14 64.089v292.988zM491.912 487.879l-187.232 60.040 187.232 60.032 187.232-60.032-187.232-60.040zM893.763-79.563l-77.837 66.688c-8.681 8.154-22.249 8.154-30.93 0l-77.837-66.688 6.71 158.356c54.082-28.85 119.102-28.85 173.184 0l6.71-158.356zM800.461 90.324c-82.903 0-150.105 66.818-150.105 149.247s67.202 149.247 150.105 149.247c82.903 0 150.105-66.818 150.105-149.247-0.090-82.389-67.243-149.158-150.105-149.247zM874.788 311.595l-98.531-97.96-50.067 50.267c-6.499 6.397-16.971 6.397-23.47 0-6.499-6.405-6.605-16.81-0.236-23.336l61.868-62.599c3.070-3.271 7.313-5.215 11.808-5.401h0.024c4.487 0.178 8.73 2.097 11.808 5.344l110.38 109.992c6.588 6.478 6.637 17.028 0.122 23.571-6.507 6.551-17.126 6.599-23.706 0.121z" />
<glyph unicode="&#xe941;" glyph-name="whatsapp_round" d="M512 896c-282.727 0-512-229.273-512-512s229.273-512 512-512 512 229.273 512 512-229.273 512-512 512zM522.852 85.898c-0.008 0 0.008 0 0 0h-0.125c-51.289 0.023-101.688 12.883-146.445 37.289l-162.445-42.602 43.477 158.75c-26.82 46.453-40.93 99.156-40.906 153.148 0.070 168.906 137.539 306.32 306.445 306.32 81.969-0.031 158.914-31.938 216.766-89.836 57.859-57.906 89.703-134.875 89.672-216.727-0.070-168.914-137.555-306.344-306.438-306.344zM522.953 647.062c-140.492 0-254.75-114.211-254.813-254.602-0.016-48.109 13.453-94.961 38.945-135.5l6.055-9.633-25.734-93.961 96.398 25.281 9.305-5.516c39.102-23.203 83.93-35.477 129.633-35.492h0.102c140.383 0 254.641 114.219 254.703 254.617 0.023 68.039-26.445 132.008-74.531 180.133s-112.039 74.648-180.063 74.672zM672.766 282.992c-6.383-17.875-36.969-34.195-51.68-36.398-13.195-1.969-29.883-2.789-48.227 3.031-11.125 3.531-25.383 8.242-43.656 16.125-76.805 33.156-126.969 110.469-130.797 115.578s-31.266 41.508-31.266 79.188c0 37.672 19.781 56.195 26.797 63.852 7.023 7.664 15.32 9.578 20.422 9.578s10.211-0.047 14.672-0.266c4.703-0.234 11.016 1.789 17.227-13.141 6.383-15.328 21.695-53 23.609-56.828 1.914-3.836 3.188-8.305 0.641-13.414-2.555-5.109-11.039-16.133-19.141-26.18-3.398-4.211-7.828-7.961-3.359-15.625 4.461-7.656 19.836-32.727 42.594-53.023 29.25-26.078 53.922-34.156 61.578-37.992 7.648-3.828 12.117-3.188 16.586 1.914 4.461 5.109 19.141 22.352 24.242 30.016s10.211 6.383 17.227 3.828c7.023-2.547 44.664-21.070 52.32-24.898 7.656-3.836 12.758-5.75 14.672-8.945 1.922-3.195 1.922-18.516-4.461-36.398z" />
<glyph unicode="&#xe942;" glyph-name="facebook_round" d="M594.555-121.336c-4.266-0.695-8.547-1.336-12.844-1.922 4.297 0.586 8.578 1.227 12.844 1.922zM604.797-119.586c-2.039-0.375-4.078-0.719-6.117-1.070 2.039 0.352 4.078 0.695 6.117 1.070zM570.273-124.68c-4.992-0.563-10.016-1.063-15.055-1.484 5.039 0.422 10.063 0.922 15.055 1.484zM580.109-123.477c-2.398-0.32-4.813-0.617-7.219-0.898 2.406 0.281 4.82 0.578 7.219 0.898zM618.734-116.82c-1.797-0.383-3.602-0.766-5.406-1.133 1.805 0.367 3.609 0.75 5.406 1.133zM653.328-108.227c-1.453-0.414-2.906-0.805-4.359-1.211 1.453 0.406 2.906 0.797 4.359 1.211zM642.867-111.086c-1.578-0.414-3.164-0.836-4.75-1.234 1.586 0.398 3.172 0.813 4.75 1.234zM629.18-114.508c-1.672-0.391-3.359-0.758-5.047-1.133 1.688 0.375 3.375 0.742 5.047 1.133zM555.055-126.18c-2.695-0.227-5.391-0.43-8.094-0.609 2.703 0.18 5.398 0.383 8.094 0.609zM1024 384c0 282.727-229.273 512-512 512s-512-229.273-512-512 229.273-512 512-512c3.008 0 6 0.063 9 0.117v398.57h-110v128.195h110v94.336c0 109.406 66.789 168.953 164.383 168.953 46.734 0 86.906-3.484 98.617-5.039v-114.344h-67.297c-53.094 0-63.375-25.234-63.375-62.258v-81.648h126.953l-16.547-128.195h-110.406v-378.906c214.008 61.352 370.672 258.516 370.672 492.219zM545.828-126.859c-5.328-0.344-10.68-0.617-16.047-0.797 5.367 0.18 10.719 0.453 16.047 0.797zM529.508-127.672c-2.828-0.094-5.664-0.164-8.5-0.211 2.836 0.047 5.672 0.117 8.5 0.211z" />
<glyph unicode="&#xe943;" glyph-name="twitter_round" d="M512 896c-282.727 0-512-229.273-512-512s229.273-512 512-512 512 229.273 512 512-229.273 512-512 512zM745.773 496.797c0.227-5.039 0.336-10.102 0.336-15.188 0-155.289-118.203-334.359-334.367-334.367v0c-66.367 0-128.125 19.453-180.133 52.789 9.195-1.086 18.555-1.625 28.031-1.625 55.063 0 105.734 18.781 145.961 50.305-51.445 0.953-94.82 34.93-109.789 81.625 7.164-1.375 14.531-2.125 22.086-2.125 10.727 0 21.117 1.445 30.992 4.141-53.773 10.766-94.281 58.289-94.281 115.195 0 0.531 0 1.008 0.016 1.5 15.836-8.805 33.945-14.102 53.227-14.695-31.555 21.055-52.297 57.047-52.297 97.82 0 21.531 5.82 41.703 15.914 59.070 57.953-71.109 144.563-117.875 242.234-122.789-2.016 8.609-3.055 17.578-3.055 26.797 0 64.875 52.633 117.508 117.531 117.508 33.805 0 64.336-14.289 85.781-37.133 26.773 5.281 51.914 15.063 74.625 28.523-8.789-27.43-27.414-50.445-51.68-65 23.773 2.844 46.43 9.148 67.484 18.508-15.727-23.57-35.672-44.273-58.617-60.859z" />
</font>
</defs>
</svg>
