<svg xmlns="http://www.w3.org/2000/svg" width="18" height="18" viewBox="0 0 18 18">
    <g fill="none" fill-rule="evenodd">
        <g fill="#000" fill-rule="nonzero">
            <g>
                <path d="M6.3 17.1v-6.916L.162 1.416C-.03 1.14-.053.782.102.485.257.187.564 0 .899 0H17.1c.335 0 .643.187.798.485.155.297.131.656-.06.93l-6.138 8.77v4.666c0 .31-.16.598-.423.763l-3.6 2.25c-.278.173-.627.182-.913.023-.286-.158-.464-.46-.464-.786zM2.628 1.8l5.31 7.584c.105.152.162.332.162.516v5.577l1.8-1.125V9.9c0-.184.057-.364.162-.516l5.31-7.584H2.627z"
                      transform="translate(-56 -185) translate(56 185)"/>
            </g>
        </g>
    </g>
</svg>
