<svg xmlns="http://www.w3.org/2000/svg" width="18" height="18" viewBox="0 0 18 18">
    <g fill="none" fill-rule="evenodd">
        <g fill="#000" fill-rule="nonzero">
            <g>
                <path d="M7.453 12.864l-2.064 2.064V.9c0-.497-.403-.9-.9-.9s-.9.403-.9.9v14.028l-2.064-2.064c-.353-.34-.914-.336-1.261.011-.348.347-.352.909-.011 1.262l3.6 3.6c.352.35.92.35 1.273 0l3.6-3.6c.342-.353.338-.916-.01-1.263-.348-.348-.91-.352-1.263-.01zM8.09 3.6h9c.497 0 .9-.403.9-.9s-.403-.9-.9-.9h-9c-.498 0-.9.403-.9.9s.402.9.9.9zM17.09 5.4h-9c-.498 0-.9.403-.9.9s.402.9.9.9h9c.497 0 .9-.403.9-.9s-.403-.9-.9-.9z"
                      transform="translate(-242 -185) translate(242 185)"/>
                <path d="M14.39 9h-6.3c-.498 0-.9.403-.9.9s.402.9.9.9h6.3c.497 0 .9-.403.9-.9s-.403-.9-.9-.9z"
                      transform="translate(-242 -185) translate(242 185)"/>
            </g>
        </g>
    </g>
</svg>
